<svg width="21" height="39" viewBox="0 0 21 39" fill="none" xmlns="http://www.w3.org/2000/svg">
<path d="M2.105 2.35557L2.105 2.35557L2.10717 2.35351C2.45713 2.02093 2.91139 1.84033 3.37815 1.84033C3.84307 1.84033 4.29557 2.0195 4.64497 2.34956L17.3997 14.7862L18.0979 14.0702L17.4075 14.7936C18.0773 15.433 18.6132 16.2088 18.9802 17.0734C19.3472 17.938 19.537 18.8721 19.537 19.8169C19.537 20.7618 19.3472 21.6958 18.9802 22.5605C18.6132 23.4251 18.0773 24.2009 17.4075 24.8402L17.4074 24.8402L17.3997 24.8477L4.64504 37.2842C4.29394 37.6156 3.83898 37.7948 3.37198 37.7932C2.90305 37.7916 2.44734 37.6079 2.09772 37.2714L2.09674 37.2704C1.93992 37.1199 1.8135 36.9363 1.7268 36.7301C1.64007 36.524 1.59537 36.3007 1.5962 36.0744C1.59702 35.8482 1.64336 35.6253 1.73156 35.4198C1.81974 35.2144 1.94746 35.0318 2.10531 34.8826L2.10537 34.8827L2.11483 34.8735L14.8972 22.465C15.2547 22.1259 15.5386 21.7162 15.7326 21.2624C15.9275 20.8063 16.0278 20.3148 16.0278 19.8185C16.0278 19.3222 15.9275 18.8306 15.7326 18.3746C15.5386 17.9208 15.2547 17.5111 14.8972 17.172L2.11492 4.76048L2.11498 4.76041L2.105 4.75098C1.94638 4.60114 1.81818 4.41762 1.72993 4.21114C1.64166 4.00461 1.5957 3.78052 1.5957 3.55327C1.5957 3.32602 1.64166 3.10193 1.72993 2.89541C1.81818 2.68893 1.94638 2.5054 2.105 2.35557Z" fill="#4C7D9E" stroke="black" stroke-width="2"/>
</svg>
