<svg width="21" height="39" viewBox="0 0 21 39" fill="none" xmlns="http://www.w3.org/2000/svg">
<path d="M1.9612 2.14707L1.9612 2.14707L1.96337 2.14501C2.31333 1.81244 2.76759 1.63184 3.23435 1.63184C3.69927 1.63184 4.15177 1.811 4.50117 2.14106L17.2559 14.5777L17.9541 13.8617L17.2637 14.5851C17.9335 15.2245 18.4694 16.0003 18.8364 16.8649C19.2034 17.7295 19.3932 18.6636 19.3932 19.6084C19.3932 20.5533 19.2034 21.4873 18.8364 22.352C18.4694 23.2166 17.9335 23.9924 17.2637 24.6317L17.2636 24.6317L17.2559 24.6392L4.50124 37.0757C4.15015 37.4071 3.69518 37.5863 3.22818 37.5847C2.75925 37.5831 2.30354 37.3994 1.95392 37.0629L1.95294 37.0619C1.79613 36.9114 1.6697 36.7278 1.583 36.5217C1.49628 36.3155 1.45157 36.0922 1.4524 35.8659C1.45322 35.6397 1.49956 35.4168 1.58776 35.2113C1.67594 35.006 1.80366 34.8233 1.96151 34.6741L1.96157 34.6742L1.97103 34.665L14.7534 22.2565C15.1109 21.9174 15.3948 21.5077 15.5888 21.0539C15.7837 20.5978 15.884 20.1063 15.884 19.61C15.884 19.1137 15.7837 18.6221 15.5888 18.1661C15.3948 17.7123 15.1109 17.3026 14.7534 16.9635L1.97112 4.55198L1.97118 4.55191L1.9612 4.54248C1.80258 4.39265 1.67438 4.20912 1.58613 4.00264C1.49786 3.79612 1.4519 3.57203 1.4519 3.34478C1.4519 3.11753 1.49786 2.89344 1.58613 2.68691C1.67438 2.48044 1.80258 2.29691 1.9612 2.14707Z" fill="#4C7D9E" stroke="black" stroke-width="2"/>
</svg>
