<svg width="21" height="39" viewBox="0 0 21 39" fill="none" xmlns="http://www.w3.org/2000/svg">
<path d="M2.105 2.31358L2.105 2.31358L2.10717 2.31152C2.45713 1.97894 2.91139 1.79834 3.37815 1.79834C3.84307 1.79834 4.29557 1.97751 4.64497 2.30757L17.3997 14.7442L18.0979 14.0282L17.4075 14.7517C18.0773 15.391 18.6132 16.1668 18.9802 17.0314C19.3472 17.896 19.537 18.8301 19.537 19.7749C19.537 20.7198 19.3472 21.6538 18.9802 22.5185C18.6132 23.3831 18.0773 24.1589 17.4075 24.7982L17.4074 24.7982L17.3997 24.8057L4.64504 37.2423C4.29394 37.5736 3.83898 37.7528 3.37198 37.7512C2.90305 37.7496 2.44734 37.5659 2.09772 37.2294L2.09674 37.2284C1.93992 37.0779 1.8135 36.8943 1.7268 36.6882C1.64007 36.482 1.59537 36.2587 1.5962 36.0324C1.59702 35.8062 1.64336 35.5833 1.73156 35.3778C1.81974 35.1725 1.94746 34.9898 2.10531 34.8406L2.10537 34.8407L2.11483 34.8315L14.8972 22.423C15.2547 22.0839 15.5386 21.6742 15.7326 21.2204C15.9275 20.7643 16.0278 20.2728 16.0278 19.7765C16.0278 19.2802 15.9275 18.7886 15.7326 18.3326C15.5386 17.8788 15.2547 17.4691 14.8972 17.13L2.11492 4.71849L2.11498 4.71842L2.105 4.70899C1.94638 4.55915 1.81818 4.37562 1.72993 4.16915C1.64166 3.96262 1.5957 3.73853 1.5957 3.51128C1.5957 3.28403 1.64166 3.05994 1.72993 2.85341C1.81818 2.64694 1.94638 2.46341 2.105 2.31358Z" fill="#4C7D9E" stroke="black" stroke-width="2"/>
</svg>
