<svg width="21" height="39" viewBox="0 0 21 39" fill="none" xmlns="http://www.w3.org/2000/svg">
<path d="M2.105 2.10337L2.105 2.10337L2.10717 2.10131C2.45713 1.76873 2.91139 1.58813 3.37815 1.58813C3.84307 1.58813 4.29557 1.7673 4.64497 2.09736L17.3997 14.534L18.0979 13.818L17.4075 14.5414C18.0773 15.1808 18.6132 15.9566 18.9802 16.8212C19.3472 17.6858 19.537 18.6199 19.537 19.5647C19.537 20.5096 19.3472 21.4436 18.9802 22.3083C18.6132 23.1729 18.0773 23.9487 17.4075 24.588L17.4074 24.588L17.3997 24.5955L4.64504 37.032C4.29394 37.3634 3.83898 37.5426 3.37198 37.541C2.90305 37.5394 2.44734 37.3557 2.09772 37.0192L2.09674 37.0182C1.93992 36.8677 1.8135 36.6841 1.7268 36.478C1.64007 36.2718 1.59537 36.0485 1.5962 35.8222C1.59702 35.596 1.64336 35.3731 1.73156 35.1676C1.81974 34.9622 1.94746 34.7796 2.10531 34.6304L2.10537 34.6305L2.11483 34.6213L14.8972 22.2128C15.2547 21.8737 15.5386 21.464 15.7326 21.0102C15.9275 20.5541 16.0278 20.0626 16.0278 19.5663C16.0278 19.07 15.9275 18.5784 15.7326 18.1224C15.5386 17.6686 15.2547 17.2589 14.8972 16.9198L2.11492 4.50828L2.11498 4.50821L2.105 4.49878C1.94638 4.34895 1.81818 4.16542 1.72993 3.95894C1.64166 3.75242 1.5957 3.52833 1.5957 3.30108C1.5957 3.07383 1.64166 2.84974 1.72993 2.64321C1.81818 2.43673 1.94638 2.25321 2.105 2.10337Z" fill="#4C7D9E" stroke="black" stroke-width="2"/>
</svg>
