<svg width="21" height="39" viewBox="0 0 21 39" fill="none" xmlns="http://www.w3.org/2000/svg">
<path d="M2.105 1.93882L2.105 1.93882L2.10717 1.93676C2.45713 1.60418 2.91139 1.42358 3.37815 1.42358C3.84307 1.42358 4.29557 1.60275 4.64497 1.93281L17.3997 14.3695L18.0979 13.6535L17.4075 14.3769C18.0773 15.0162 18.6132 15.792 18.9802 16.6566C19.3472 17.5213 19.537 18.4553 19.537 19.4002C19.537 20.3451 19.3472 21.2791 18.9802 22.1437C18.6132 23.0084 18.0773 23.7841 17.4075 24.4235L17.4074 24.4234L17.3997 24.4309L4.64504 36.8675C4.29394 37.1989 3.83898 37.378 3.37198 37.3764C2.90305 37.3748 2.44734 37.1911 2.09772 36.8546L2.09674 36.8537C1.93992 36.7032 1.8135 36.5195 1.7268 36.3134C1.64007 36.1072 1.59537 35.8839 1.5962 35.6577C1.59702 35.4315 1.64336 35.2085 1.73156 35.0031C1.81974 34.7977 1.94746 34.6151 2.10531 34.4659L2.10537 34.4659L2.11483 34.4567L14.8972 22.0482C15.2547 21.7091 15.5386 21.2994 15.7326 20.8456C15.9275 20.3896 16.0278 19.898 16.0278 19.4017C16.0278 18.9055 15.9275 18.4139 15.7326 17.9578C15.5386 17.504 15.2547 17.0943 14.8972 16.7552L2.11492 4.34373L2.11498 4.34366L2.105 4.33423C1.94638 4.1844 1.81818 4.00087 1.72993 3.79439C1.64166 3.58787 1.5957 3.36377 1.5957 3.13653C1.5957 2.90928 1.64166 2.68518 1.72993 2.47866C1.81818 2.27218 1.94638 2.08865 2.105 1.93882Z" fill="#4C7D9E" stroke="black" stroke-width="2"/>
</svg>
