<svg width="21" height="39" viewBox="0 0 21 39" fill="none" xmlns="http://www.w3.org/2000/svg">
<path d="M2.105 2.35215L2.105 2.35215L2.10717 2.35009C2.45713 2.01751 2.91139 1.83691 3.37815 1.83691C3.84307 1.83691 4.29557 2.01608 4.64497 2.34614L17.3997 14.7828L18.0979 14.0668L17.4075 14.7902C18.0773 15.4296 18.6132 16.2054 18.9802 17.07C19.3472 17.9346 19.537 18.8687 19.537 19.8135C19.537 20.7584 19.3472 21.6924 18.9802 22.5571C18.6132 23.4217 18.0773 24.1975 17.4075 24.8368L17.4074 24.8368L17.3997 24.8442L4.64504 37.2808C4.29394 37.6122 3.83898 37.7913 3.37198 37.7898C2.90305 37.7882 2.44734 37.6044 2.09772 37.268L2.09674 37.267C1.93992 37.1165 1.8135 36.9328 1.7268 36.7267C1.64007 36.5206 1.59537 36.2972 1.5962 36.071C1.59702 35.8448 1.64336 35.6219 1.73156 35.4164C1.81974 35.211 1.94746 35.0284 2.10531 34.8792L2.10537 34.8792L2.11483 34.8701L14.8972 22.4616C15.2547 22.1225 15.5386 21.7128 15.7326 21.2589C15.9275 20.8029 16.0278 20.3113 16.0278 19.8151C16.0278 19.3188 15.9275 18.8272 15.7326 18.3712C15.5386 17.9174 15.2547 17.5077 14.8972 17.1686L2.11492 4.75706L2.11498 4.75699L2.105 4.74756C1.94638 4.59773 1.81818 4.4142 1.72993 4.20772C1.64166 4.0012 1.5957 3.7771 1.5957 3.54986C1.5957 3.32261 1.64166 3.09851 1.72993 2.89199C1.81818 2.68551 1.94638 2.50198 2.105 2.35215Z" fill="#4C7D9E" stroke="black" stroke-width="2"/>
</svg>
