<svg width="21" height="39" viewBox="0 0 21 39" fill="none" xmlns="http://www.w3.org/2000/svg">
<path d="M2.105 2.48008L2.105 2.48008L2.10717 2.47802C2.45713 2.14544 2.91139 1.96484 3.37815 1.96484C3.84307 1.96484 4.29557 2.14401 4.64497 2.47407L17.3997 14.9107L18.0979 14.1947L17.4075 14.9182C18.0773 15.5575 18.6132 16.3333 18.9802 17.1979C19.3472 18.0625 19.537 18.9966 19.537 19.9415C19.537 20.8863 19.3472 21.8203 18.9802 22.685C18.6132 23.5496 18.0773 24.3254 17.4075 24.9647L17.4074 24.9647L17.3997 24.9722L4.64504 37.4088C4.29394 37.7401 3.83898 37.9193 3.37198 37.9177C2.90305 37.9161 2.44734 37.7324 2.09772 37.3959L2.09674 37.3949C1.93992 37.2444 1.8135 37.0608 1.7268 36.8547C1.64007 36.6485 1.59537 36.4252 1.5962 36.1989C1.59702 35.9727 1.64336 35.7498 1.73156 35.5443C1.81974 35.339 1.94746 35.1564 2.10531 35.0071L2.10537 35.0072L2.11483 34.998L14.8972 22.5895C15.2547 22.2504 15.5386 21.8407 15.7326 21.3869C15.9275 20.9308 16.0278 20.4393 16.0278 19.943C16.0278 19.4467 15.9275 18.9551 15.7326 18.4991C15.5386 18.0453 15.2547 17.6356 14.8972 17.2965L2.11492 4.88499L2.11498 4.88492L2.105 4.87549C1.94638 4.72566 1.81818 4.54213 1.72993 4.33565C1.64166 4.12913 1.5957 3.90503 1.5957 3.67778C1.5957 3.45054 1.64166 3.22644 1.72993 3.01992C1.81818 2.81344 1.94638 2.62991 2.105 2.48008Z" fill="#4C7D9E" stroke="black" stroke-width="2"/>
</svg>
