<svg width="21" height="39" viewBox="0 0 21 39" fill="none" xmlns="http://www.w3.org/2000/svg">
<path d="M2.105 1.89707L2.105 1.89707L2.10717 1.89501C2.45713 1.56244 2.91139 1.38184 3.37815 1.38184C3.84307 1.38184 4.29557 1.561 4.64497 1.89106L17.3997 14.3277L18.0979 13.6117L17.4075 14.3351C18.0773 14.9745 18.6132 15.7503 18.9802 16.6149C19.3472 17.4795 19.537 18.4136 19.537 19.3584C19.537 20.3033 19.3472 21.2373 18.9802 22.102C18.6132 22.9666 18.0773 23.7424 17.4075 24.3817L17.4074 24.3817L17.3997 24.3892L4.64504 36.8257C4.29394 37.1571 3.83898 37.3363 3.37198 37.3347C2.90305 37.3331 2.44734 37.1494 2.09772 36.8129L2.09674 36.8119C1.93992 36.6614 1.8135 36.4778 1.7268 36.2717C1.64007 36.0655 1.59537 35.8422 1.5962 35.6159C1.59702 35.3897 1.64336 35.1668 1.73156 34.9613C1.81974 34.756 1.94746 34.5733 2.10531 34.4241L2.10537 34.4242L2.11483 34.415L14.8972 22.0065C15.2547 21.6674 15.5386 21.2577 15.7326 20.8039C15.9275 20.3478 16.0278 19.8563 16.0278 19.36C16.0278 18.8637 15.9275 18.3721 15.7326 17.9161C15.5386 17.4623 15.2547 17.0526 14.8972 16.7135L2.11492 4.30198L2.11498 4.30191L2.105 4.29248C1.94638 4.14265 1.81818 3.95912 1.72993 3.75264C1.64166 3.54612 1.5957 3.32203 1.5957 3.09478C1.5957 2.86753 1.64166 2.64344 1.72993 2.43691C1.81818 2.23044 1.94638 2.04691 2.105 1.89707Z" fill="#4C7D9E" stroke="black" stroke-width="2"/>
</svg>
