<svg width="21" height="39" viewBox="0 0 21 39" fill="none" xmlns="http://www.w3.org/2000/svg">
<path d="M2.105 2.06382L2.105 2.06382L2.10717 2.06176C2.45713 1.72918 2.91139 1.54858 3.37815 1.54858C3.84307 1.54858 4.29557 1.72775 4.64497 2.05781L17.3997 14.4945L18.0979 13.7785L17.4075 14.5019C18.0773 15.1412 18.6132 15.917 18.9802 16.7816C19.3472 17.6463 19.537 18.5803 19.537 19.5252C19.537 20.4701 19.3472 21.4041 18.9802 22.2687C18.6132 23.1334 18.0773 23.9091 17.4075 24.5485L17.4074 24.5484L17.3997 24.5559L4.64504 36.9925C4.29394 37.3239 3.83898 37.503 3.37198 37.5014C2.90305 37.4998 2.44734 37.3161 2.09772 36.9796L2.09674 36.9787C1.93992 36.8282 1.8135 36.6445 1.7268 36.4384C1.64007 36.2322 1.59537 36.0089 1.5962 35.7827C1.59702 35.5565 1.64336 35.3335 1.73156 35.1281C1.81974 34.9227 1.94746 34.7401 2.10531 34.5909L2.10537 34.5909L2.11483 34.5817L14.8972 22.1732C15.2547 21.8341 15.5386 21.4244 15.7326 20.9706C15.9275 20.5146 16.0278 20.023 16.0278 19.5267C16.0278 19.0305 15.9275 18.5389 15.7326 18.0828C15.5386 17.629 15.2547 17.2193 14.8972 16.8802L2.11492 4.46873L2.11498 4.46866L2.105 4.45923C1.94638 4.3094 1.81818 4.12587 1.72993 3.91939C1.64166 3.71287 1.5957 3.48877 1.5957 3.26153C1.5957 3.03428 1.64166 2.81018 1.72993 2.60366C1.81818 2.39718 1.94638 2.21365 2.105 2.06382Z" fill="#4C7D9E" stroke="black" stroke-width="2"/>
</svg>
