<svg width="21" height="39" viewBox="0 0 21 39" fill="none" xmlns="http://www.w3.org/2000/svg">
<path d="M2.105 1.73032L2.105 1.73033L2.10717 1.72827C2.45713 1.39569 2.91139 1.21509 3.37815 1.21509C3.84307 1.21509 4.29557 1.39426 4.64497 1.72431L17.3997 14.161L18.0979 13.445L17.4075 14.1684C18.0773 14.8077 18.6132 15.5835 18.9802 16.4481C19.3472 17.3128 19.537 18.2468 19.537 19.1917C19.537 20.1366 19.3472 21.0706 18.9802 21.9353C18.6132 22.7999 18.0773 23.5756 17.4075 24.215L17.4074 24.2149L17.3997 24.2224L4.64504 36.659C4.29394 36.9904 3.83898 37.1695 3.37198 37.1679C2.90305 37.1663 2.44734 36.9826 2.09772 36.6461L2.09674 36.6452C1.93992 36.4947 1.8135 36.311 1.7268 36.1049C1.64007 35.8987 1.59537 35.6754 1.5962 35.4492C1.59702 35.223 1.64336 35 1.73156 34.7946C1.81974 34.5892 1.94746 34.4066 2.10531 34.2574L2.10537 34.2574L2.11483 34.2482L14.8972 21.8397C15.2547 21.5006 15.5386 21.0909 15.7326 20.6371C15.9275 20.1811 16.0278 19.6895 16.0278 19.1932C16.0278 18.697 15.9275 18.2054 15.7326 17.7494C15.5386 17.2955 15.2547 16.8858 14.8972 16.5467L2.11492 4.13523L2.11498 4.13517L2.105 4.12574C1.94638 3.9759 1.81818 3.79237 1.72993 3.5859C1.64166 3.37937 1.5957 3.15528 1.5957 2.92803C1.5957 2.70078 1.64166 2.47669 1.72993 2.27016C1.81818 2.06369 1.94638 1.88016 2.105 1.73032Z" fill="#4C7D9E" stroke="black" stroke-width="2"/>
</svg>
