<svg width="21" height="39" viewBox="0 0 21 39" fill="none" xmlns="http://www.w3.org/2000/svg">
<path d="M2.105 1.68858L2.105 1.68858L2.10717 1.68652C2.45713 1.35394 2.91139 1.17334 3.37815 1.17334C3.84307 1.17334 4.29557 1.35251 4.64497 1.68257L17.3997 14.1192L18.0979 13.4032L17.4075 14.1267C18.0773 14.766 18.6132 15.5418 18.9802 16.4064C19.3472 17.271 19.537 18.2051 19.537 19.1499C19.537 20.0948 19.3472 21.0288 18.9802 21.8935C18.6132 22.7581 18.0773 23.5339 17.4075 24.1732L17.4074 24.1732L17.3997 24.1807L4.64504 36.6173C4.29394 36.9486 3.83898 37.1278 3.37198 37.1262C2.90305 37.1246 2.44734 36.9409 2.09772 36.6044L2.09674 36.6034C1.93992 36.4529 1.8135 36.2693 1.7268 36.0632C1.64007 35.857 1.59537 35.6337 1.5962 35.4074C1.59702 35.1812 1.64336 34.9583 1.73156 34.7528C1.81974 34.5475 1.94746 34.3648 2.10531 34.2156L2.10537 34.2157L2.11483 34.2065L14.8972 21.798C15.2547 21.4589 15.5386 21.0492 15.7326 20.5954C15.9275 20.1393 16.0278 19.6478 16.0278 19.1515C16.0278 18.6552 15.9275 18.1636 15.7326 17.7076C15.5386 17.2538 15.2547 16.8441 14.8972 16.505L2.11492 4.09349L2.11498 4.09342L2.105 4.08399C1.94638 3.93415 1.81818 3.75062 1.72993 3.54415C1.64166 3.33762 1.5957 3.11353 1.5957 2.88628C1.5957 2.65903 1.64166 2.43494 1.72993 2.22841C1.81818 2.02194 1.94638 1.83841 2.105 1.68858Z" fill="#4C7D9E" stroke="black" stroke-width="2"/>
</svg>
