<svg width="21" height="39" viewBox="0 0 21 39" fill="none" xmlns="http://www.w3.org/2000/svg">
<path d="M2.105 2.10532L2.105 2.10533L2.10717 2.10327C2.45713 1.77069 2.91139 1.59009 3.37815 1.59009C3.84307 1.59009 4.29557 1.76926 4.64497 2.09931L17.3997 14.536L18.0979 13.82L17.4075 14.5434C18.0773 15.1827 18.6132 15.9585 18.9802 16.8231C19.3472 17.6878 19.537 18.6218 19.537 19.5667C19.537 20.5116 19.3472 21.4456 18.9802 22.3103C18.6132 23.1749 18.0773 23.9506 17.4075 24.59L17.4074 24.5899L17.3997 24.5974L4.64504 37.034C4.29394 37.3654 3.83898 37.5445 3.37198 37.5429C2.90305 37.5413 2.44734 37.3576 2.09772 37.0211L2.09674 37.0202C1.93992 36.8697 1.8135 36.686 1.7268 36.4799C1.64007 36.2737 1.59537 36.0504 1.5962 35.8242C1.59702 35.598 1.64336 35.375 1.73156 35.1696C1.81974 34.9642 1.94746 34.7816 2.10531 34.6324L2.10537 34.6324L2.11483 34.6232L14.8972 22.2147C15.2547 21.8756 15.5386 21.4659 15.7326 21.0121C15.9275 20.5561 16.0278 20.0645 16.0278 19.5682C16.0278 19.072 15.9275 18.5804 15.7326 18.1244C15.5386 17.6705 15.2547 17.2608 14.8972 16.9217L2.11492 4.51023L2.11498 4.51017L2.105 4.50074C1.94638 4.3509 1.81818 4.16737 1.72993 3.9609C1.64166 3.75437 1.5957 3.53028 1.5957 3.30303C1.5957 3.07578 1.64166 2.85169 1.72993 2.64516C1.81818 2.43869 1.94638 2.25516 2.105 2.10532Z" fill="#4C7D9E" stroke="black" stroke-width="2"/>
</svg>
