<svg width="21" height="39" viewBox="0 0 21 39" fill="none" xmlns="http://www.w3.org/2000/svg">
<path d="M2.105 2.22471L2.105 2.22471L2.10717 2.22265C2.45713 1.89007 2.91139 1.70947 3.37815 1.70947C3.84307 1.70947 4.29557 1.88864 4.64497 2.2187L17.3997 14.6554L18.0979 13.9394L17.4075 14.6628C18.0773 15.3021 18.6132 16.0779 18.9802 16.9425C19.3472 17.8072 19.537 18.7412 19.537 19.6861C19.537 20.6309 19.3472 21.565 18.9802 22.4296C18.6132 23.2942 18.0773 24.07 17.4075 24.7094L17.4074 24.7093L17.3997 24.7168L4.64504 37.1534C4.29394 37.4848 3.83898 37.6639 3.37198 37.6623C2.90305 37.6607 2.44734 37.477 2.09772 37.1405L2.09674 37.1396C1.93992 36.9891 1.8135 36.8054 1.7268 36.5993C1.64007 36.3931 1.59537 36.1698 1.5962 35.9436C1.59702 35.7173 1.64336 35.4944 1.73156 35.289C1.81974 35.0836 1.94746 34.901 2.10531 34.7517L2.10537 34.7518L2.11483 34.7426L14.8972 22.3341C15.2547 21.995 15.5386 21.5853 15.7326 21.1315C15.9275 20.6755 16.0278 20.1839 16.0278 19.6876C16.0278 19.1913 15.9275 18.6998 15.7326 18.2437C15.5386 17.7899 15.2547 17.3802 14.8972 17.0411L2.11492 4.62962L2.11498 4.62955L2.105 4.62012C1.94638 4.47028 1.81818 4.28676 1.72993 4.08028C1.64166 3.87375 1.5957 3.64966 1.5957 3.42241C1.5957 3.19516 1.64166 2.97107 1.72993 2.76455C1.81818 2.55807 1.94638 2.37454 2.105 2.22471Z" fill="#4C7D9E" stroke="black" stroke-width="2"/>
</svg>
