<svg width="21" height="38" viewBox="0 0 21 38" fill="none" xmlns="http://www.w3.org/2000/svg">
<path d="M2.105 1.52207L2.105 1.52207L2.10717 1.52001C2.45713 1.18744 2.91139 1.00684 3.37815 1.00684C3.84307 1.00684 4.29557 1.186 4.64497 1.51606L17.3997 13.9527L18.0979 13.2367L17.4075 13.9601C18.0773 14.5995 18.6132 15.3753 18.9802 16.2399C19.3472 17.1045 19.537 18.0386 19.537 18.9834C19.537 19.9283 19.3472 20.8623 18.9802 21.727C18.6132 22.5916 18.0773 23.3674 17.4075 24.0067L17.4074 24.0067L17.3997 24.0142L4.64504 36.4507C4.29394 36.7821 3.83898 36.9613 3.37198 36.9597C2.90305 36.9581 2.44734 36.7744 2.09772 36.4379L2.09674 36.4369C1.93992 36.2864 1.8135 36.1028 1.7268 35.8967C1.64007 35.6905 1.59537 35.4672 1.5962 35.2409C1.59702 35.0147 1.64336 34.7918 1.73156 34.5863C1.81974 34.381 1.94746 34.1983 2.10531 34.0491L2.10537 34.0492L2.11483 34.04L14.8972 21.6315C15.2547 21.2924 15.5386 20.8827 15.7326 20.4289C15.9275 19.9728 16.0278 19.4813 16.0278 18.985C16.0278 18.4887 15.9275 17.9971 15.7326 17.5411C15.5386 17.0873 15.2547 16.6776 14.8972 16.3385L2.11492 3.92698L2.11498 3.92691L2.105 3.91748C1.94638 3.76765 1.81818 3.58412 1.72993 3.37764C1.64166 3.17112 1.5957 2.94703 1.5957 2.71978C1.5957 2.49253 1.64166 2.26844 1.72993 2.06191C1.81818 1.85544 1.94638 1.67191 2.105 1.52207Z" fill="#4C7D9E" stroke="black" stroke-width="2"/>
</svg>
