<svg width="66" height="65" viewBox="0 0 66 65" fill="none" xmlns="http://www.w3.org/2000/svg">
<path d="M49.872 61.7271H16.13C12.5499 61.7271 9.11645 60.3051 6.58477 57.7738C4.05309 55.2425 2.63054 51.8092 2.63 48.2291V26.9951C2.63007 24.6747 3.22825 22.3934 4.36681 20.3715C5.50537 18.3496 7.14588 16.6553 9.13 15.4521L26.004 5.22713C28.1137 3.94881 30.5333 3.27295 33 3.27295C35.4667 3.27295 37.8863 3.94881 39.996 5.22713L56.868 15.4521C58.8525 16.6551 60.4934 18.3493 61.6323 20.3712C62.7712 22.3931 63.3697 24.6745 63.37 26.9951V48.2291C63.3695 51.8089 61.9472 55.2418 59.4159 57.7731C56.8847 60.3043 53.4517 61.7266 49.872 61.7271V61.7271Z" stroke="white" stroke-width="5" stroke-linecap="round" stroke-linejoin="round"/>
<path d="M22.8765 61.7271H43.1235" stroke="white" stroke-width="5" stroke-linecap="round" stroke-linejoin="round"/>
</svg>
