<svg width="39" height="65" viewBox="0 0 39 65" fill="none" xmlns="http://www.w3.org/2000/svg">
<path d="M3.46191 61.8387V45.6227M3.46191 45.6227V5.33268C3.46188 4.98603 3.55444 4.64566 3.73003 4.34677C3.90562 4.04788 4.15786 3.80132 4.46067 3.63258C4.76348 3.46384 5.10587 3.37905 5.45243 3.38698C5.79899 3.39491 6.13714 3.49527 6.43191 3.67768L34.9409 21.3267C35.2181 21.4982 35.4477 21.7367 35.6087 22.0201C35.7697 22.3035 35.857 22.6228 35.8624 22.9487C35.8679 23.2746 35.7914 23.5966 35.64 23.8853C35.4886 24.1739 35.2671 24.4199 34.9959 24.6007L3.46191 45.6227Z" stroke="white" stroke-width="5" stroke-linecap="round" stroke-linejoin="round"/>
</svg>
