<svg width="65" height="65" viewBox="0 0 65 65" fill="none" xmlns="http://www.w3.org/2000/svg">
<path d="M47.2151 47.2275L61.8291 61.8415" stroke="white" stroke-width="5" stroke-linecap="round" stroke-linejoin="round"/>
<path d="M3.37402 28.4385C3.37402 33.3933 4.8433 38.2368 7.59605 42.3566C10.3488 46.4764 14.2614 49.6874 18.839 51.5835C23.4167 53.4796 28.4538 53.9757 33.3134 53.0091C38.173 52.0425 42.6369 49.6565 46.1405 46.1529C49.644 42.6493 52.03 38.1855 52.9967 33.3259C53.9633 28.4663 53.4672 23.4291 51.5711 18.8515C49.6749 14.2738 46.4639 10.3612 42.3442 7.6085C38.2244 4.85575 33.3808 3.38647 28.426 3.38647C21.7818 3.38647 15.4097 6.02587 10.7116 10.724C6.01342 15.4222 3.37402 21.7943 3.37402 28.4385V28.4385Z" stroke="white" stroke-width="5" stroke-linecap="round" stroke-linejoin="round"/>
</svg>
