<svg width="64" height="63" viewBox="0 0 64 63" fill="none" xmlns="http://www.w3.org/2000/svg">
<path d="M22.333 31.5H32M41.667 31.5H32M32 31.5V21.833M32 31.5V41.167" stroke="white" stroke-width="5" stroke-linecap="round" stroke-linejoin="round"/>
<path d="M61 4.433V58.567C61 59.0797 60.7963 59.5713 60.4338 59.9338C60.0713 60.2963 59.5797 60.5 59.067 60.5H4.933C4.42034 60.5 3.92867 60.2963 3.56616 59.9338C3.20365 59.5713 3 59.0797 3 58.567V4.433C3 3.92034 3.20365 3.42867 3.56616 3.06616C3.92867 2.70365 4.42034 2.5 4.933 2.5H59.067C59.5797 2.5 60.0713 2.70365 60.4338 3.06616C60.7963 3.42867 61 3.92034 61 4.433Z" stroke="white" stroke-width="5" stroke-linecap="round" stroke-linejoin="round"/>
</svg>
