<svg width="29" height="31" viewBox="0 0 29 31" fill="none" xmlns="http://www.w3.org/2000/svg">
<path d="M0.24605 28.7278L2.22743 21.4853C1.76873 20.4781 1.43005 19.4178 1.21873 18.3274C1.00913 17.23 0.904562 16.1142 0.906509 14.9959C0.892153 13.0715 1.26485 11.1648 2.00127 9.39503C3.43163 5.95279 6.10234 3.21108 9.45544 1.74269C11.1793 0.984791 13.037 0.600435 14.9122 0.613691C16.7868 0.598953 18.6441 0.981555 20.368 1.73756C23.7211 3.20594 26.3918 5.94765 27.8222 9.3899C28.5596 11.1611 28.9327 13.0697 28.918 14.9959C28.9323 16.9202 28.5596 18.827 27.8232 20.5967C26.3924 24.0387 23.7213 26.7801 20.368 28.248C18.6441 29.004 16.7868 29.3866 14.9122 29.3719C13.8215 29.3738 12.7332 29.2661 11.663 29.0503C10.6008 28.8337 9.56797 28.4864 8.58684 28.0158L1.53194 30.0499C1.35415 30.1121 1.16256 30.12 0.980468 30.0726C0.798377 30.0252 0.633623 29.9245 0.506231 29.7828C0.367784 29.6518 0.269461 29.4823 0.22326 29.295C0.177059 29.1077 0.184978 28.9106 0.24605 28.7278V28.7278Z" fill="#C4C4C4"/>
</svg>
