<svg width="29" height="30" viewBox="0 0 29 30" fill="none" xmlns="http://www.w3.org/2000/svg">
<path d="M0.24605 28.603L2.22743 21.3605C1.76873 20.3534 1.43005 19.2931 1.21873 18.2026C1.00913 17.1052 0.904562 15.9894 0.906509 14.8711C0.892153 12.9467 1.26485 11.04 2.00127 9.27028C3.43163 5.82803 6.10234 3.08632 9.45544 1.61794C11.1793 0.860035 13.037 0.475679 14.9122 0.488936C16.7868 0.474198 18.6441 0.8568 20.368 1.6128C23.7211 3.08119 26.3918 5.8229 27.8222 9.26514C28.5596 11.0364 28.9327 12.9449 28.918 14.8711C28.9323 16.7955 28.5596 18.7022 27.8232 20.4719C26.3924 23.914 23.7213 26.6553 20.368 28.1232C18.6441 28.8792 16.7868 29.2618 14.9122 29.2471C13.8215 29.249 12.7332 29.1413 11.663 28.9256C10.6008 28.709 9.56797 28.3616 8.58684 27.8911L1.53194 29.9251C1.35415 29.9874 1.16256 29.9953 0.980468 29.9479C0.798377 29.9005 0.633623 29.7998 0.506231 29.658C0.367784 29.5271 0.269461 29.3576 0.22326 29.1702C0.177059 28.9829 0.184978 28.7858 0.24605 28.603V28.603Z" fill="#C4C4C4"/>
</svg>
