<svg width="29" height="31" viewBox="0 0 29 31" fill="none" xmlns="http://www.w3.org/2000/svg">
<path d="M0.24605 29.0554L2.22743 21.8129C1.76873 20.8058 1.43005 19.7455 1.21873 18.655C1.00913 17.5576 0.904562 16.4418 0.906509 15.3235C0.892153 13.3991 1.26485 11.4924 2.00127 9.72267C3.43163 6.28042 6.10234 3.53872 9.45544 2.07033C11.1793 1.31243 13.037 0.928071 14.9122 0.941328C16.7868 0.92659 18.6441 1.30919 20.368 2.06519C23.7211 3.53358 26.3918 6.27529 27.8222 9.71753C28.5596 11.4888 28.9327 13.3973 28.918 15.3235C28.9323 17.2479 28.5596 19.1546 27.8232 20.9243C26.3924 24.3664 23.7213 27.1077 20.368 28.5756C18.6441 29.3316 16.7868 29.7142 14.9122 29.6995C13.8215 29.7014 12.7332 29.5937 11.663 29.378C10.6008 29.1613 9.56797 28.814 8.58684 28.3435L1.53194 30.3775C1.35415 30.4398 1.16256 30.4477 0.980468 30.4003C0.798377 30.3529 0.633623 30.2522 0.506231 30.1104C0.367784 29.9795 0.269461 29.81 0.22326 29.6226C0.177059 29.4353 0.184978 29.2382 0.24605 29.0554V29.0554Z" fill="#C4C4C4"/>
</svg>
