<svg width="29" height="30" viewBox="0 0 29 30" fill="none" xmlns="http://www.w3.org/2000/svg">
<path d="M0.24605 28.3108L2.22743 21.0683C1.76873 20.0611 1.43005 19.0008 1.21873 17.9104C1.00913 16.813 0.904562 15.6972 0.906509 14.5789C0.892153 12.6545 1.26485 10.7478 2.00127 8.97804C3.43163 5.5358 6.10234 2.79409 9.45544 1.3257C11.1793 0.567799 13.037 0.183442 14.9122 0.196699C16.7868 0.181961 18.6441 0.564563 20.368 1.32056C23.7211 2.78895 26.3918 5.53066 27.8222 8.97291C28.5596 10.7441 28.9327 12.6527 28.918 14.5789C28.9323 16.5033 28.5596 18.41 27.8232 20.1797C26.3924 23.6217 23.7213 26.3631 20.368 27.831C18.6441 28.587 16.7868 28.9696 14.9122 28.9549C13.8215 28.9568 12.7332 28.8491 11.663 28.6333C10.6008 28.4167 9.56797 28.0694 8.58684 27.5988L1.53194 29.6329C1.35415 29.6952 1.16256 29.7031 0.980468 29.6556C0.798377 29.6082 0.633623 29.5075 0.506231 29.3658C0.367784 29.2348 0.269461 29.0654 0.22326 28.878C0.177059 28.6907 0.184978 28.4936 0.24605 28.3108V28.3108Z" fill="#C4C4C4"/>
</svg>
