<svg width="29" height="30" viewBox="0 0 29 30" fill="none" xmlns="http://www.w3.org/2000/svg">
<path d="M0.24605 28.1862L2.22743 20.9438C1.76873 19.9366 1.43005 18.8763 1.21873 17.7859C1.00913 16.6885 0.904562 15.5727 0.906509 14.4544C0.892153 12.53 1.26485 10.6233 2.00127 8.85353C3.43163 5.41128 6.10234 2.66958 9.45544 1.20119C11.1793 0.443287 13.037 0.0589307 14.9122 0.0721875C16.7868 0.0574495 18.6441 0.440052 20.368 1.19605C23.7211 2.66444 26.3918 5.40615 27.8222 8.84839C28.5596 10.6196 28.9327 12.5282 28.918 14.4544C28.9323 16.3787 28.5596 18.2855 27.8232 20.0552C26.3924 23.4972 23.7213 26.2386 20.368 27.7065C18.6441 28.4625 16.7868 28.8451 14.9122 28.8304C13.8215 28.8323 12.7332 28.7246 11.663 28.5088C10.6008 28.2922 9.56797 27.9449 8.58684 27.4743L1.53194 29.5084C1.35415 29.5706 1.16256 29.5785 0.980468 29.5311C0.798377 29.4837 0.633623 29.383 0.506231 29.2413C0.367784 29.1103 0.269461 28.9408 0.22326 28.7535C0.177059 28.5662 0.184978 28.3691 0.24605 28.1862V28.1862Z" fill="#C4C4C4"/>
</svg>
