<svg width="29" height="30" viewBox="0 0 29 30" fill="none" xmlns="http://www.w3.org/2000/svg">
<path d="M0.24605 28.3528L2.22743 21.1103C1.76873 20.1031 1.43005 19.0428 1.21873 17.9524C1.00913 16.855 0.904562 15.7392 0.906509 14.6209C0.892153 12.6965 1.26485 10.7898 2.00127 9.02003C3.43163 5.57779 6.10234 2.83608 9.45544 1.36769C11.1793 0.609791 13.037 0.225435 14.9122 0.238691C16.7868 0.223953 18.6441 0.606555 20.368 1.36256C23.7211 2.83094 26.3918 5.57265 27.8222 9.0149C28.5596 10.7861 28.9327 12.6947 28.918 14.6209C28.9323 16.5452 28.5596 18.452 27.8232 20.2217C26.3924 23.6637 23.7213 26.4051 20.368 27.873C18.6441 28.629 16.7868 29.0116 14.9122 28.9969C13.8215 28.9988 12.7332 28.8911 11.663 28.6753C10.6008 28.4587 9.56797 28.1114 8.58684 27.6408L1.53194 29.6749C1.35415 29.7371 1.16256 29.745 0.980468 29.6976C0.798377 29.6502 0.633623 29.5495 0.506231 29.4078C0.367784 29.2768 0.269461 29.1073 0.22326 28.92C0.177059 28.7327 0.184978 28.5356 0.24605 28.3528V28.3528Z" fill="#C4C4C4"/>
</svg>
