<svg width="29" height="30" viewBox="0 0 29 30" fill="none" xmlns="http://www.w3.org/2000/svg">
<path d="M0.24605 28.1443L2.22743 20.9018C1.76873 19.8946 1.43005 18.8343 1.21873 17.7439C1.00913 16.6465 0.904562 15.5307 0.906509 14.4124C0.892153 12.488 1.26485 10.5813 2.00127 8.81154C3.43163 5.36929 6.10234 2.62758 9.45544 1.1592C11.1793 0.401295 13.037 0.0169385 14.9122 0.0301953C16.7868 0.0154573 18.6441 0.398059 20.368 1.15406C23.7211 2.62245 26.3918 5.36416 27.8222 8.8064C28.5596 10.5776 28.9327 12.4862 28.918 14.4124C28.9323 16.3367 28.5596 18.2435 27.8232 20.0132C26.3924 23.4552 23.7213 26.1966 20.368 27.6645C18.6441 28.4205 16.7868 28.8031 14.9122 28.7884C13.8215 28.7903 12.7332 28.6826 11.663 28.4668C10.6008 28.2502 9.56797 27.9029 8.58684 27.4323L1.53194 29.4664C1.35415 29.5286 1.16256 29.5366 0.980468 29.4891C0.798377 29.4417 0.633623 29.341 0.506231 29.1993C0.367784 29.0683 0.269461 28.8989 0.22326 28.7115C0.177059 28.5242 0.184978 28.3271 0.24605 28.1443V28.1443Z" fill="#C4C4C4"/>
</svg>
