<svg width="29" height="30" viewBox="0 0 29 30" fill="none" xmlns="http://www.w3.org/2000/svg">
<path d="M0.24605 28.5193L2.22743 21.2768C1.76873 20.2696 1.43005 19.2093 1.21873 18.1189C1.00913 17.0215 0.904562 15.9057 0.906509 14.7874C0.892153 12.863 1.26485 10.9563 2.00127 9.18654C3.43163 5.74429 6.10234 3.00258 9.45544 1.5342C11.1793 0.776295 13.037 0.391938 14.9122 0.405195C16.7868 0.390457 18.6441 0.773059 20.368 1.52906C23.7211 2.99745 26.3918 5.73916 27.8222 9.1814C28.5596 10.9526 28.9327 12.8612 28.918 14.7874C28.9323 16.7117 28.5596 18.6185 27.8232 20.3882C26.3924 23.8302 23.7213 26.5716 20.368 28.0395C18.6441 28.7955 16.7868 29.1781 14.9122 29.1634C13.8215 29.1653 12.7332 29.0576 11.663 28.8418C10.6008 28.6252 9.56797 28.2779 8.58684 27.8073L1.53194 29.8414C1.35415 29.9036 1.16256 29.9116 0.980468 29.8641C0.798377 29.8167 0.633623 29.716 0.506231 29.5743C0.367784 29.4433 0.269461 29.2739 0.22326 29.0865C0.177059 28.8992 0.184978 28.7021 0.24605 28.5193V28.5193Z" fill="#C4C4C4"/>
</svg>
