<svg width="30" height="31" viewBox="0 0 30 31" fill="none" xmlns="http://www.w3.org/2000/svg">
<path d="M0.674029 28.9778L2.6554 21.7353C2.19671 20.7281 1.85803 19.6678 1.6467 18.5774C1.43711 17.48 1.33254 16.3642 1.33449 15.2459C1.32013 13.3215 1.69283 11.4148 2.42925 9.64503C3.85961 6.20279 6.53032 3.46108 9.88342 1.99269C11.6073 1.23479 13.465 0.850435 15.3402 0.863691C17.2148 0.848953 19.0721 1.23156 20.796 1.98756C24.1491 3.45594 26.8198 6.19765 28.2502 9.6399C28.9876 11.4111 29.3607 13.3197 29.3459 15.2459C29.3603 17.1702 28.9876 19.077 28.2512 20.8467C26.8204 24.2887 24.1493 27.0301 20.796 28.498C19.0721 29.254 17.2148 29.6366 15.3402 29.6219C14.2495 29.6238 13.1612 29.5161 12.091 29.3003C11.0288 29.0837 9.99595 28.7364 9.01482 28.2658L1.95992 30.2999C1.78212 30.3621 1.59054 30.37 1.40845 30.3226C1.22636 30.2752 1.0616 30.1745 0.934209 30.0328C0.795762 29.9018 0.697439 29.7323 0.651238 29.545C0.605037 29.3577 0.612956 29.1606 0.674029 28.9778V28.9778Z" fill="#C4C4C4"/>
</svg>
