<svg width="29" height="31" viewBox="0 0 29 31" fill="none" xmlns="http://www.w3.org/2000/svg">
<path d="M0.24605 28.936L2.22743 21.6936C1.76873 20.6864 1.43005 19.6261 1.21873 18.5356C1.00913 17.4382 0.904562 16.3224 0.906509 15.2041C0.892153 13.2797 1.26485 11.373 2.00127 9.60329C3.43163 6.16104 6.10234 3.41933 9.45544 1.95094C11.1793 1.19304 13.037 0.808687 14.9122 0.821943C16.7868 0.807205 18.6441 1.18981 20.368 1.94581C23.7211 3.41419 26.3918 6.1559 27.8222 9.59815C28.5596 11.3694 28.9327 13.2779 28.918 15.2041C28.9323 17.1285 28.5596 19.0352 27.8232 20.8049C26.3924 24.247 23.7213 26.9883 20.368 28.4563C18.6441 29.2123 16.7868 29.5949 14.9122 29.5801C13.8215 29.582 12.7332 29.4744 11.663 29.2586C10.6008 29.042 9.56797 28.6946 8.58684 28.2241L1.53194 30.2581C1.35415 30.3204 1.16256 30.3283 0.980468 30.2809C0.798377 30.2335 0.633623 30.1328 0.506231 29.991C0.367784 29.8601 0.269461 29.6906 0.22326 29.5033C0.177059 29.3159 0.184978 29.1188 0.24605 28.936V28.936Z" fill="#C4C4C4"/>
</svg>
