<svg width="29" height="31" viewBox="0 0 29 31" fill="none" xmlns="http://www.w3.org/2000/svg">
<path d="M0.24605 28.7695L2.22743 21.527C1.76873 20.5199 1.43005 19.4596 1.21873 18.3691C1.00913 17.2717 0.904562 16.1559 0.906509 15.0376C0.892153 13.1132 1.26485 11.2065 2.00127 9.43678C3.43163 5.99454 6.10234 3.25283 9.45544 1.78444C11.1793 1.02654 13.037 0.642183 14.9122 0.655439C16.7868 0.640701 18.6441 1.0233 20.368 1.7793C23.7211 3.24769 26.3918 5.9894 27.8222 9.43165C28.5596 11.2029 28.9327 13.1114 28.918 15.0376C28.9323 16.962 28.5596 18.8687 27.8232 20.6384C26.3924 24.0805 23.7213 26.8218 20.368 28.2898C18.6441 29.0458 16.7868 29.4284 14.9122 29.4136C13.8215 29.4155 12.7332 29.3078 11.663 29.0921C10.6008 28.8755 9.56797 28.5281 8.58684 28.0576L1.53194 30.0916C1.35415 30.1539 1.16256 30.1618 0.980468 30.1144C0.798377 30.067 0.633623 29.9663 0.506231 29.8245C0.367784 29.6936 0.269461 29.5241 0.22326 29.3368C0.177059 29.1494 0.184978 28.9523 0.24605 28.7695V28.7695Z" fill="#C4C4C4"/>
</svg>
