<svg width="29" height="30" viewBox="0 0 29 30" fill="none" xmlns="http://www.w3.org/2000/svg">
<path d="M0.24605 28.1828L2.22743 20.9404C1.76873 19.9332 1.43005 18.8729 1.21873 17.7825C1.00913 16.6851 0.904562 15.5692 0.906509 14.4509C0.892153 12.5266 1.26485 10.6198 2.00127 8.85011C3.43163 5.40787 6.10234 2.66616 9.45544 1.19777C11.1793 0.439869 13.037 0.0555127 14.9122 0.0687695C16.7868 0.0540316 18.6441 0.436634 20.368 1.19263C23.7211 2.66102 26.3918 5.40273 27.8222 8.84498C28.5596 10.6162 28.9327 12.5248 28.918 14.4509C28.9323 16.3753 28.5596 18.282 27.8232 20.0518C26.3924 23.4938 23.7213 26.2352 20.368 27.7031C18.6441 28.4591 16.7868 28.8417 14.9122 28.8269C13.8215 28.8289 12.7332 28.7212 11.663 28.5054C10.6008 28.2888 9.56797 27.9415 8.58684 27.4709L1.53194 29.505C1.35415 29.5672 1.16256 29.5751 0.980468 29.5277C0.798377 29.4803 0.633623 29.3796 0.506231 29.2379C0.367784 29.1069 0.269461 28.9374 0.22326 28.7501C0.177059 28.5627 0.184978 28.3656 0.24605 28.1828V28.1828Z" fill="#C4C4C4"/>
</svg>
