<svg width="29" height="30" viewBox="0 0 29 30" fill="none" xmlns="http://www.w3.org/2000/svg">
<path d="M0.24605 28.3945L2.22743 21.152C1.76873 20.1449 1.43005 19.0846 1.21873 17.9941C1.00913 16.8967 0.904562 15.7809 0.906509 14.6626C0.892153 12.7382 1.26485 10.8315 2.00127 9.06178C3.43163 5.61954 6.10234 2.87783 9.45544 1.40944C11.1793 0.651539 13.037 0.267183 14.9122 0.280439C16.7868 0.265701 18.6441 0.648304 20.368 1.4043C23.7211 2.87269 26.3918 5.6144 27.8222 9.05665C28.5596 10.8279 28.9327 12.7364 28.918 14.6626C28.9323 16.587 28.5596 18.4937 27.8232 20.2634C26.3924 23.7055 23.7213 26.4468 20.368 27.9148C18.6441 28.6708 16.7868 29.0534 14.9122 29.0386C13.8215 29.0405 12.7332 28.9328 11.663 28.7171C10.6008 28.5005 9.56797 28.1531 8.58684 27.6826L1.53194 29.7166C1.35415 29.7789 1.16256 29.7868 0.980468 29.7394C0.798377 29.692 0.633623 29.5913 0.506231 29.4495C0.367784 29.3186 0.269461 29.1491 0.22326 28.9618C0.177059 28.7744 0.184978 28.5773 0.24605 28.3945V28.3945Z" fill="#C4C4C4"/>
</svg>
