<svg width="29" height="30" viewBox="0 0 29 30" fill="none" xmlns="http://www.w3.org/2000/svg">
<path d="M0.24605 28.561L2.22743 21.3186C1.76873 20.3114 1.43005 19.2511 1.21873 18.1606C1.00913 17.0632 0.904562 15.9474 0.906509 14.8291C0.892153 12.9047 1.26485 10.998 2.00127 9.22829C3.43163 5.78604 6.10234 3.04433 9.45544 1.57594C11.1793 0.818043 13.037 0.433687 14.9122 0.446943C16.7868 0.432205 18.6441 0.814807 20.368 1.57081C23.7211 3.03919 26.3918 5.7809 27.8222 9.22315C28.5596 10.9944 28.9327 12.9029 28.918 14.8291C28.9323 16.7535 28.5596 18.6602 27.8232 20.4299C26.3924 23.872 23.7213 26.6133 20.368 28.0813C18.6441 28.8373 16.7868 29.2199 14.9122 29.2051C13.8215 29.207 12.7332 29.0994 11.663 28.8836C10.6008 28.667 9.56797 28.3196 8.58684 27.8491L1.53194 29.8831C1.35415 29.9454 1.16256 29.9533 0.980468 29.9059C0.798377 29.8585 0.633623 29.7578 0.506231 29.616C0.367784 29.4851 0.269461 29.3156 0.22326 29.1283C0.177059 28.9409 0.184978 28.7438 0.24605 28.561V28.561Z" fill="#C4C4C4"/>
</svg>
