<svg width="56" height="72" viewBox="0 0 56 72" fill="none" xmlns="http://www.w3.org/2000/svg">
<path d="M27.3763 71.7314C24.6711 71.7272 22.0784 70.6508 20.1663 68.7373C18.2541 66.8238 17.1784 64.2295 17.1761 61.5244H3.56278C2.9321 61.5212 2.31525 61.3436 1.77958 61.0107C1.2439 60.6778 0.810694 60.2037 0.528599 59.6396C0.246504 59.0756 0.125952 58.4437 0.180943 57.8154C0.235933 57.1871 0.464325 56.5856 0.840123 56.0791L3.56278 52.335V29.3994C3.57362 23.8043 5.67273 18.4132 9.44852 14.2842C13.2243 10.1551 18.405 7.5851 23.9768 7.0752V3.6748C23.9768 2.77134 24.336 1.90544 24.9749 1.2666C25.6137 0.627759 26.4806 0.268555 27.3841 0.268555C28.2875 0.268555 29.1534 0.627759 29.7923 1.2666C30.4311 1.90544 30.7903 2.77134 30.7903 3.6748V7.0752C33.9243 7.35471 36.9634 8.29515 39.7073 9.83496C37.9897 10.8428 36.5125 12.213 35.3792 13.8506C33.6944 13.1586 31.9149 12.7234 30.1009 12.5596C29.3341 12.4486 28.5599 12.4037 27.7854 12.4248H27.2015C26.6284 12.408 26.055 12.4286 25.4847 12.4873H25.4622H25.4241C25.4075 12.4864 25.391 12.4864 25.3743 12.4873L25.2991 12.4971C25.1561 12.5131 24.9561 12.5318 24.6741 12.5518C20.2209 12.9405 16.0758 14.9876 13.0589 18.2861C10.0419 21.5847 8.37294 25.896 8.38211 30.3662V54.3857C8.38705 54.6083 8.43675 54.8275 8.5286 55.0303C8.62045 55.233 8.75226 55.4149 8.91629 55.5654C9.08033 55.7159 9.27376 55.8312 9.48368 55.9053C9.6936 55.9793 9.91582 56.0113 10.138 55.9971C10.1486 55.9969 10.1594 55.9988 10.1692 56.0029H44.7112C44.9281 56.0089 45.1437 55.9719 45.346 55.8936C45.5483 55.8152 45.7327 55.6964 45.889 55.5459C46.0452 55.3954 46.1703 55.2159 46.2561 55.0166C46.342 54.8173 46.3869 54.6027 46.389 54.3857V34.9951H46.5003C48.1068 34.9971 49.7007 34.7115 51.2063 34.1514V52.4307L53.929 56.0752C54.3048 56.5817 54.5332 57.1813 54.5882 57.8096C54.6432 58.4379 54.5226 59.0697 54.2405 59.6338C53.9584 60.1979 53.5262 60.672 52.9905 61.0049C52.4548 61.3378 51.837 61.5173 51.2063 61.5205H37.594C37.5903 64.2288 36.5126 66.8248 34.597 68.7393C32.6813 70.6537 30.0845 71.7293 27.3763 71.7314V71.7314ZM23.9759 61.5244C23.9759 62.4279 24.3351 63.2938 24.9739 63.9326C25.6128 64.5715 26.4796 64.9307 27.3831 64.9307C28.2866 64.9307 29.1525 64.5715 29.7913 63.9326C30.4301 63.2938 30.7893 62.4279 30.7893 61.5244H23.9759Z" fill="#282828"/>
<path d="M46 32.0007C51.5228 32.0007 56 27.5236 56 22.0007C56 16.4779 51.5228 12.0007 46 12.0007C40.4772 12.0007 36 16.4779 36 22.0007C36 27.5236 40.4772 32.0007 46 32.0007Z" fill="#FF0000"/>
</svg>
