<svg width="32" height="30" viewBox="0 0 32 30" fill="none" xmlns="http://www.w3.org/2000/svg">
<path d="M22.8515 0.485107C21.4105 0.508151 20.0011 0.921114 18.7653 1.68229C17.5296 2.44347 16.5114 3.52591 15.8136 4.8203C15.1158 3.52606 14.0978 2.44372 12.8623 1.68255C11.6267 0.921379 10.2175 0.508331 8.7767 0.485107C6.47992 0.588461 4.31619 1.62023 2.7577 3.35526C1.19921 5.09029 0.372481 7.38773 0.457926 9.7462C0.457926 18.6457 14.4787 28.9238 15.0741 29.3604L15.8136 29.8977L16.5531 29.3604C17.1535 28.9269 31.1682 18.6457 31.1682 9.7462C31.2537 7.38807 30.4272 5.09093 28.8692 3.35596C27.3111 1.62099 25.1479 0.588987 22.8515 0.485107V0.485107Z" fill="#C4C4C4"/>
</svg>
