<svg width="32" height="31" viewBox="0 0 32 31" fill="none" xmlns="http://www.w3.org/2000/svg">
<path d="M22.8515 0.860107C21.4105 0.883151 20.0011 1.29611 18.7653 2.05729C17.5296 2.81847 16.5114 3.90091 15.8136 5.1953C15.1158 3.90106 14.0978 2.81872 12.8623 2.05755C11.6267 1.29638 10.2175 0.883331 8.7767 0.860107C6.47992 0.963461 4.31619 1.99523 2.7577 3.73026C1.19921 5.46529 0.372481 7.76273 0.457926 10.1212C0.457926 19.0207 14.4787 29.2988 15.0741 29.7354L15.8136 30.2727L16.5531 29.7354C17.1535 29.3019 31.1682 19.0207 31.1682 10.1212C31.2537 7.76307 30.4272 5.46593 28.8692 3.73096C27.3111 1.99599 25.1479 0.963987 22.8515 0.860107V0.860107Z" fill="#C4C4C4"/>
</svg>
