<svg width="32" height="31" viewBox="0 0 32 31" fill="none" xmlns="http://www.w3.org/2000/svg">
<path d="M22.8515 0.979492C21.4105 1.00254 20.0011 1.4155 18.7653 2.17668C17.5296 2.93786 16.5114 4.0203 15.8136 5.31469C15.1158 4.02045 14.0978 2.9381 12.8623 2.17693C11.6267 1.41576 10.2175 1.00272 8.7767 0.979492C6.47992 1.08285 4.31619 2.11462 2.7577 3.84965C1.19921 5.58468 0.372481 7.88211 0.457926 10.2406C0.457926 19.1401 14.4787 29.4182 15.0741 29.8548L15.8136 30.3921L16.5531 29.8548C17.1535 29.4213 31.1682 19.1401 31.1682 10.2406C31.2537 7.88245 30.4272 5.58532 28.8692 3.85035C27.3111 2.11537 25.1479 1.08337 22.8515 0.979492V0.979492Z" fill="#C4C4C4"/>
</svg>
