<svg width="32" height="30" viewBox="0 0 32 30" fill="none" xmlns="http://www.w3.org/2000/svg">
<path d="M22.8515 0.443359C21.4105 0.466403 20.0011 0.879366 18.7653 1.64054C17.5296 2.40172 16.5114 3.48416 15.8136 4.77856C15.1158 3.48431 14.0978 2.40197 12.8623 1.6408C11.6267 0.879631 10.2175 0.466583 8.7767 0.443359C6.47992 0.546713 4.31619 1.57848 2.7577 3.31352C1.19921 5.04855 0.372481 7.34598 0.457926 9.70445C0.457926 18.6039 14.4787 28.882 15.0741 29.3186L15.8136 29.8559L16.5531 29.3186C17.1535 28.8851 31.1682 18.6039 31.1682 9.70445C31.2537 7.34632 30.4272 5.04919 28.8692 3.31421C27.3111 1.57924 25.1479 0.547239 22.8515 0.443359V0.443359Z" fill="#C4C4C4"/>
</svg>
