<svg width="32" height="31" viewBox="0 0 32 31" fill="none" xmlns="http://www.w3.org/2000/svg">
<path d="M22.8515 0.693604C21.4105 0.716647 20.0011 1.12961 18.7653 1.89079C17.5296 2.65197 16.5114 3.73441 15.8136 5.0288C15.1158 3.73456 14.0978 2.65221 12.8623 1.89104C11.6267 1.12987 10.2175 0.716827 8.7767 0.693604C6.47992 0.796957 4.31619 1.82873 2.7577 3.56376C1.19921 5.29879 0.372481 7.59622 0.457926 9.95469C0.457926 18.8542 14.4787 29.1323 15.0741 29.5689L15.8136 30.1062L16.5531 29.5689C17.1535 29.1354 31.1682 18.8542 31.1682 9.95469C31.2537 7.59656 30.4272 5.29943 28.8692 3.56446C27.3111 1.82948 25.1479 0.797484 22.8515 0.693604V0.693604Z" fill="#C4C4C4"/>
</svg>
