<svg width="32" height="31" viewBox="0 0 32 31" fill="none" xmlns="http://www.w3.org/2000/svg">
<path d="M22.8515 0.651855C21.4105 0.674899 20.0011 1.08786 18.7653 1.84904C17.5296 2.61022 16.5114 3.69266 15.8136 4.98705C15.1158 3.69281 14.0978 2.61047 12.8623 1.8493C11.6267 1.08813 10.2175 0.675079 8.7767 0.651855C6.47992 0.755209 4.31619 1.78698 2.7577 3.52201C1.19921 5.25704 0.372481 7.55447 0.457926 9.91295C0.457926 18.8124 14.4787 29.0905 15.0741 29.5271L15.8136 30.0644L16.5531 29.5271C17.1535 29.0936 31.1682 18.8124 31.1682 9.91295C31.2537 7.55481 30.4272 5.25768 28.8692 3.52271C27.3111 1.78774 25.1479 0.755735 22.8515 0.651855V0.651855Z" fill="#C4C4C4"/>
</svg>
