<svg width="32" height="30" viewBox="0 0 32 30" fill="none" xmlns="http://www.w3.org/2000/svg">
<path d="M22.8515 0.276855C21.4105 0.299899 20.0011 0.712862 18.7653 1.47404C17.5296 2.23522 16.5114 3.31766 15.8136 4.61205C15.1158 3.31781 14.0978 2.23547 12.8623 1.4743C11.6267 0.713127 10.2175 0.300079 8.7767 0.276855C6.47992 0.380209 4.31619 1.41198 2.7577 3.14701C1.19921 4.88204 0.372481 7.17947 0.457926 9.53795C0.457926 18.4374 14.4787 28.7155 15.0741 29.1521L15.8136 29.6894L16.5531 29.1521C17.1535 28.7186 31.1682 18.4374 31.1682 9.53795C31.2537 7.17981 30.4272 4.88268 28.8692 3.14771C27.3111 1.41274 25.1479 0.380735 22.8515 0.276855V0.276855Z" fill="#C4C4C4"/>
</svg>
