<svg width="32" height="31" viewBox="0 0 32 31" fill="none" xmlns="http://www.w3.org/2000/svg">
<path d="M23.2794 0.901855C21.8385 0.924899 20.429 1.33786 19.1933 2.09904C17.9576 2.86022 16.9394 3.94266 16.2416 5.23705C15.5438 3.94281 14.5258 2.86047 13.2902 2.0993C12.0547 1.33813 10.6454 0.925079 9.20468 0.901855C6.9079 1.00521 4.74417 2.03698 3.18568 3.77201C1.62719 5.50704 0.80046 7.80447 0.885904 10.1629C0.885904 19.0624 14.9066 29.3405 15.5021 29.7771L16.2416 30.3144L16.9811 29.7771C17.5815 29.3436 31.5962 19.0624 31.5962 10.1629C31.6817 7.80481 30.8552 5.50768 29.2972 3.77271C27.7391 2.03774 25.5759 1.00574 23.2794 0.901855V0.901855Z" fill="#C4C4C4"/>
</svg>
