<svg width="32" height="30" viewBox="0 0 32 30" fill="none" xmlns="http://www.w3.org/2000/svg">
<path d="M22.8515 0.0683594C21.4105 0.0914033 20.0011 0.504366 18.7653 1.26554C17.5296 2.02672 16.5114 3.10916 15.8136 4.40356C15.1158 3.10931 14.0978 2.02697 12.8623 1.2658C11.6267 0.504631 10.2175 0.0915829 8.7767 0.0683594C6.47992 0.171713 4.31619 1.20348 2.7577 2.93852C1.19921 4.67355 0.372481 6.97098 0.457926 9.32945C0.457926 18.2289 14.4787 28.507 15.0741 28.9436L15.8136 29.4809L16.5531 28.9436C17.1535 28.5101 31.1682 18.2289 31.1682 9.32945C31.2537 6.97132 30.4272 4.67419 28.8692 2.93921C27.3111 1.20424 25.1479 0.172239 22.8515 0.0683594V0.0683594Z" fill="#C4C4C4"/>
</svg>
