<svg width="32" height="30" viewBox="0 0 32 30" fill="none" xmlns="http://www.w3.org/2000/svg">
<path d="M22.8515 0.110352C21.4105 0.133395 20.0011 0.546358 18.7653 1.30754C17.5296 2.06872 16.5114 3.15116 15.8136 4.44555C15.1158 3.15131 14.0978 2.06896 12.8623 1.30779C11.6267 0.546623 10.2175 0.133575 8.7767 0.110352C6.47992 0.213705 4.31619 1.24548 2.7577 2.98051C1.19921 4.71554 0.372481 7.01297 0.457926 9.37144C0.457926 18.2709 14.4787 28.549 15.0741 28.9856L15.8136 29.5229L16.5531 28.9856C17.1535 28.5521 31.1682 18.2709 31.1682 9.37144C31.2537 7.01331 30.4272 4.71618 28.8692 2.98121C27.3111 1.24623 25.1479 0.214232 22.8515 0.110352V0.110352Z" fill="#C4C4C4"/>
</svg>
