<svg width="32" height="30" viewBox="0 0 32 30" fill="none" xmlns="http://www.w3.org/2000/svg">
<path d="M22.8515 0.527222C21.4105 0.550266 20.0011 0.963228 18.7653 1.72441C17.5296 2.48559 16.5114 3.56803 15.8136 4.86242C15.1158 3.56818 14.0978 2.48583 12.8623 1.72466C11.6267 0.963493 10.2175 0.550445 8.7767 0.527222C6.47992 0.630575 4.31619 1.66235 2.7577 3.39738C1.19921 5.13241 0.372481 7.42984 0.457926 9.78831C0.457926 18.6878 14.4787 28.9659 15.0741 29.4025L15.8136 29.9398L16.5531 29.4025C17.1535 28.969 31.1682 18.6878 31.1682 9.78831C31.2537 7.43018 30.4272 5.13305 28.8692 3.39808C27.3111 1.6631 25.1479 0.631102 22.8515 0.527222V0.527222Z" fill="#C4C4C4"/>
</svg>
