<svg width="32" height="30" viewBox="0 0 32 30" fill="none" xmlns="http://www.w3.org/2000/svg">
<path d="M22.8515 0.318726C21.4105 0.341769 20.0011 0.754732 18.7653 1.51591C17.5296 2.27709 16.5114 3.35953 15.8136 4.65392C15.1158 3.35968 14.0978 2.27734 12.8623 1.51617C11.6267 0.754997 10.2175 0.341949 8.7767 0.318726C6.47992 0.422079 4.31619 1.45385 2.7577 3.18888C1.19921 4.92391 0.372481 7.22134 0.457926 9.57982C0.457926 18.4793 14.4787 28.7574 15.0741 29.194L15.8136 29.7313L16.5531 29.194C17.1535 28.7605 31.1682 18.4793 31.1682 9.57982C31.2537 7.22168 30.4272 4.92455 28.8692 3.18958C27.3111 1.45461 25.1479 0.422606 22.8515 0.318726V0.318726Z" fill="#C4C4C4"/>
</svg>
