<svg width="32" height="30" viewBox="0 0 32 30" fill="none" xmlns="http://www.w3.org/2000/svg">
<path d="M22.8515 0.234863C21.4105 0.257907 20.0011 0.67087 18.7653 1.43205C17.5296 2.19323 16.5114 3.27567 15.8136 4.57006C15.1158 3.27582 14.0978 2.19347 12.8623 1.4323C11.6267 0.671134 10.2175 0.258087 8.7767 0.234863C6.47992 0.338217 4.31619 1.36999 2.7577 3.10502C1.19921 4.84005 0.372481 7.13748 0.457926 9.49595C0.457926 18.3954 14.4787 28.6735 15.0741 29.1102L15.8136 29.6474L16.5531 29.1102C17.1535 28.6766 31.1682 18.3954 31.1682 9.49595C31.2537 7.13782 30.4272 4.84069 28.8692 3.10572C27.3111 1.37074 25.1479 0.338743 22.8515 0.234863V0.234863Z" fill="#C4C4C4"/>
</svg>
