<svg width="32" height="30" viewBox="0 0 32 30" fill="none" xmlns="http://www.w3.org/2000/svg">
<path d="M22.8515 0.106934C21.4105 0.129977 20.0011 0.54294 18.7653 1.30412C17.5296 2.0653 16.5114 3.14774 15.8136 4.44213C15.1158 3.14789 14.0978 2.06554 12.8623 1.30437C11.6267 0.543205 10.2175 0.130157 8.7767 0.106934C6.47992 0.210287 4.31619 1.24206 2.7577 2.97709C1.19921 4.71212 0.372481 7.00955 0.457926 9.36802C0.457926 18.2675 14.4787 28.5456 15.0741 28.9822L15.8136 29.5195L16.5531 28.9822C17.1535 28.5487 31.1682 18.2675 31.1682 9.36802C31.2537 7.00989 30.4272 4.71276 28.8692 2.97779C27.3111 1.24281 25.1479 0.210814 22.8515 0.106934V0.106934Z" fill="#C4C4C4"/>
</svg>
