<svg width="30" height="31" viewBox="0 0 30 31" fill="none" xmlns="http://www.w3.org/2000/svg">
<path d="M23.4445 18.8713C22.5432 18.8721 21.6557 19.0979 20.8584 19.5294C20.0612 19.961 19.3782 20.5851 18.8683 21.3481L11.11 17.7526C11.6611 16.3864 11.6633 14.8519 11.116 13.4841L18.8643 9.86909C19.6199 10.991 20.7421 11.7977 22.0275 12.143C23.3128 12.4882 24.6761 12.3491 25.8701 11.7508C27.064 11.1525 28.0096 10.1348 28.5352 8.88212C29.0608 7.62948 29.1317 6.22492 28.7349 4.92324C28.3382 3.62155 27.5001 2.50896 26.3727 1.78728C25.2453 1.06559 23.9033 0.782627 22.5901 0.989705C21.2769 1.19678 20.0795 1.88019 19.2151 2.91595C18.3507 3.95172 17.8766 5.27124 17.8787 6.63515C17.8853 6.95801 17.9188 7.2797 17.9787 7.59671L9.74201 11.4388C8.95097 10.678 7.9607 10.171 6.89285 9.98011C5.82499 9.78917 4.72606 9.9226 3.73106 10.364C2.73605 10.8054 1.88831 11.5356 1.29198 12.4648C0.69564 13.394 0.37668 14.4818 0.374281 15.5945C0.371882 16.7073 0.686148 17.7965 1.27847 18.7284C1.87079 19.6603 2.71538 20.3943 3.70847 20.8402C4.70156 21.2862 5.7999 21.4246 6.86857 21.2385C7.93724 21.0524 8.92969 20.5499 9.724 19.7928L17.9817 23.6205C17.9244 23.9374 17.8929 24.2587 17.8877 24.581C17.8875 25.7106 18.2136 26.8148 18.8248 27.7541C19.4359 28.6934 20.3047 29.4255 21.3212 29.8579C22.3378 30.2903 23.4564 30.4034 24.5355 30.1831C25.6147 29.9628 26.606 29.4189 27.3841 28.6202C28.1621 27.8214 28.6919 26.8038 28.9065 25.6959C29.1212 24.588 29.0109 23.4397 28.5897 22.3962C28.1686 21.3526 27.4554 20.4607 26.5405 19.8333C25.6255 19.2059 24.5498 18.8711 23.4495 18.8713H23.4445Z" fill="#C4C4C4"/>
</svg>
