<svg width="30" height="30" viewBox="0 0 30 30" fill="none" xmlns="http://www.w3.org/2000/svg">
<path d="M24.0165 18.4128C23.1153 18.4136 22.2277 18.6394 21.4305 19.0709C20.6332 19.5025 19.9502 20.1266 19.4404 20.8896L11.682 17.2941C12.2332 15.9279 12.2353 14.3934 11.688 13.0257L19.4364 9.41059C20.1919 10.5325 21.3142 11.3392 22.5995 11.6845C23.8848 12.0297 25.2481 11.8906 26.4421 11.2923C27.636 10.694 28.5816 9.67627 29.1072 8.42363C29.6328 7.17098 29.7037 5.76643 29.3069 4.46474C28.9102 3.16305 28.0721 2.05046 26.9447 1.32878C25.8174 0.607098 24.4754 0.324131 23.1622 0.531209C21.849 0.738286 20.6516 1.42169 19.7871 2.45746C18.9227 3.49322 18.4486 4.81274 18.4507 6.17666C18.4573 6.49952 18.4908 6.8212 18.5508 7.13821L10.314 10.9803C9.52299 10.2195 8.53272 9.71255 7.46487 9.52161C6.39701 9.33067 5.29808 9.4641 4.30308 9.90551C3.30808 10.3469 2.46033 11.0771 1.864 12.0063C1.26766 12.9355 0.948702 14.0233 0.946303 15.136C0.943903 16.2488 1.25817 17.338 1.85049 18.2699C2.44282 19.2018 3.2874 19.9358 4.28049 20.3818C5.27358 20.8277 6.37192 20.9661 7.44059 20.78C8.50926 20.5939 9.50171 20.0914 10.296 19.3343L18.5538 23.162C18.4964 23.4789 18.465 23.8002 18.4597 24.1225C18.4595 25.2521 18.7856 26.3563 19.3968 27.2956C20.008 28.2349 20.8768 28.967 21.8933 29.3994C22.9098 29.8318 24.0284 29.9449 25.1076 29.7246C26.1867 29.5043 27.178 28.9604 27.9561 28.1617C28.7341 27.3629 29.264 26.3453 29.4786 25.2374C29.6932 24.1295 29.5829 22.9812 29.1618 21.9377C28.7406 20.8941 28.0274 20.0022 27.1125 19.3748C26.1975 18.7474 25.1219 18.4126 24.0215 18.4128H24.0165Z" fill="#C4C4C4"/>
</svg>
