<svg width="30" height="31" viewBox="0 0 30 31" fill="none" xmlns="http://www.w3.org/2000/svg">
<path d="M24.0165 18.8295C23.1153 18.8303 22.2277 19.0562 21.4305 19.4877C20.6332 19.9192 19.9502 20.5434 19.4404 21.3064L11.682 17.7108C12.2332 16.3447 12.2353 14.8102 11.688 13.4424L19.4364 9.82734C20.1919 10.9492 21.3142 11.756 22.5995 12.1012C23.8848 12.4464 25.2481 12.3073 26.4421 11.709C27.636 11.1108 28.5816 10.093 29.1072 8.84038C29.6328 7.58773 29.7037 6.18317 29.3069 4.88149C28.9102 3.5798 28.0721 2.46721 26.9447 1.74553C25.8174 1.02385 24.4754 0.740879 23.1622 0.947957C21.849 1.15503 20.6516 1.83844 19.7871 2.8742C18.9227 3.90997 18.4486 5.22949 18.4507 6.59341C18.4573 6.91626 18.4908 7.23795 18.5508 7.55496L10.314 11.3971C9.52299 10.6363 8.53272 10.1293 7.46487 9.93836C6.39701 9.74742 5.29808 9.88085 4.30308 10.3223C3.30808 10.7637 2.46033 11.4938 1.864 12.423C1.26766 13.3522 0.948702 14.44 0.946303 15.5528C0.943903 16.6655 1.25817 17.7548 1.85049 18.6867C2.44282 19.6186 3.2874 20.3526 4.28049 20.7985C5.27358 21.2444 6.37192 21.3828 7.44059 21.1968C8.50926 21.0107 9.50171 20.5082 10.296 19.751L18.5538 23.5787C18.4964 23.8957 18.465 24.217 18.4597 24.5393C18.4595 25.6688 18.7856 26.7731 19.3968 27.7124C20.008 28.6517 20.8768 29.3838 21.8933 29.8161C22.9098 30.2485 24.0284 30.3617 25.1076 30.1414C26.1867 29.921 27.178 29.3771 27.9561 28.5784C28.7341 27.7797 29.264 26.762 29.4786 25.6542C29.6932 24.5463 29.5829 23.398 29.1618 22.3544C28.7406 21.3109 28.0274 20.419 27.1125 19.7916C26.1975 19.1641 25.1219 18.8293 24.0215 18.8295H24.0165Z" fill="#C4C4C4"/>
</svg>
