<svg width="30" height="30" viewBox="0 0 30 30" fill="none" xmlns="http://www.w3.org/2000/svg">
<path d="M24.0165 18.0764C23.1153 18.0771 22.2277 18.303 21.4305 18.7345C20.6332 19.166 19.9502 19.7902 19.4404 20.5532L11.682 16.9576C12.2332 15.5915 12.2353 14.057 11.688 12.6892L19.4364 9.07417C20.1919 10.1961 21.3142 11.0028 22.5995 11.348C23.8848 11.6933 25.2481 11.5541 26.4421 10.9559C27.636 10.3576 28.5816 9.33985 29.1072 8.0872C29.6328 6.83456 29.7037 5.43 29.3069 4.12831C28.9102 2.82663 28.0721 1.71404 26.9447 0.992353C25.8174 0.270672 24.4754 -0.0122946 23.1622 0.194783C21.849 0.40186 20.6516 1.08527 19.7871 2.12103C18.9227 3.1568 18.4486 4.47632 18.4507 5.84023C18.4573 6.16309 18.4908 6.48478 18.5508 6.80178L10.314 10.6439C9.52299 9.88312 8.53272 9.37613 7.46487 9.18519C6.39701 8.99425 5.29808 9.12768 4.30308 9.56908C3.30808 10.0105 2.46033 10.7406 1.864 11.6699C1.26766 12.5991 0.948702 13.6869 0.946303 14.7996C0.943903 15.9123 1.25817 17.0016 1.85049 17.9335C2.44282 18.8654 3.2874 19.5994 4.28049 20.0453C5.27358 20.4912 6.37192 20.6297 7.44059 20.4436C8.50926 20.2575 9.50171 19.755 10.296 18.9979L18.5538 22.8256C18.4964 23.1425 18.465 23.4638 18.4597 23.7861C18.4595 24.9157 18.7856 26.0199 19.3968 26.9592C20.008 27.8985 20.8768 28.6306 21.8933 29.063C22.9098 29.4953 24.0284 29.6085 25.1076 29.3882C26.1867 29.1679 27.178 28.624 27.9561 27.8252C28.7341 27.0265 29.264 26.0089 29.4786 24.901C29.6932 23.7931 29.5829 22.6448 29.1618 21.6012C28.7406 20.5577 28.0274 19.6658 27.1125 19.0384C26.1975 18.411 25.1219 18.0762 24.0215 18.0764H24.0165Z" fill="#C4C4C4"/>
</svg>
