<svg width="30" height="30" viewBox="0 0 30 30" fill="none" xmlns="http://www.w3.org/2000/svg">
<path d="M24.0165 17.9492C23.1153 17.9499 22.2277 18.1758 21.4305 18.6073C20.6332 19.0388 19.9502 19.663 19.4404 20.426L11.682 16.8305C12.2332 15.4643 12.2353 13.9298 11.688 12.562L19.4364 8.94697C20.1919 10.0689 21.3142 10.8756 22.5995 11.2208C23.8848 11.5661 25.2481 11.4269 26.4421 10.8287C27.636 10.2304 28.5816 9.21265 29.1072 7.96001C29.6328 6.70736 29.7037 5.3028 29.3069 4.00112C28.9102 2.69943 28.0721 1.58684 26.9447 0.865156C25.8174 0.143475 24.4754 -0.139492 23.1622 0.0675856C21.849 0.274663 20.6516 0.958068 19.7871 1.99383C18.9227 3.0296 18.4486 4.34912 18.4507 5.71304C18.4573 6.03589 18.4908 6.35758 18.5508 6.67459L10.314 10.5167C9.52299 9.75592 8.53272 9.24893 7.46487 9.05799C6.39701 8.86705 5.29808 9.00048 4.30308 9.44188C3.30808 9.88329 2.46033 10.6134 1.864 11.5427C1.26766 12.4719 0.948702 13.5597 0.946303 14.6724C0.943903 15.7852 1.25817 16.8744 1.85049 17.8063C2.44282 18.7382 3.2874 19.4722 4.28049 19.9181C5.27358 20.3641 6.37192 20.5025 7.44059 20.3164C8.50926 20.1303 9.50171 19.6278 10.296 18.8707L18.5538 22.6984C18.4964 23.0153 18.465 23.3366 18.4597 23.6589C18.4595 24.7885 18.7856 25.8927 19.3968 26.832C20.008 27.7713 20.8768 28.5034 21.8933 28.9358C22.9098 29.3681 24.0284 29.4813 25.1076 29.261C26.1867 29.0407 27.178 28.4968 27.9561 27.698C28.7341 26.8993 29.264 25.8817 29.4786 24.7738C29.6932 23.6659 29.5829 22.5176 29.1618 21.474C28.7406 20.4305 28.0274 19.5386 27.1125 18.9112C26.1975 18.2838 25.1219 17.949 24.0215 17.9492H24.0165Z" fill="#C4C4C4"/>
</svg>
