<svg width="30" height="30" viewBox="0 0 30 30" fill="none" xmlns="http://www.w3.org/2000/svg">
<path d="M24.0165 18.2463C23.1153 18.2471 22.2277 18.4729 21.4305 18.9044C20.6332 19.336 19.9502 19.9601 19.4404 20.7231L11.682 17.1276C12.2332 15.7614 12.2353 14.2269 11.688 12.8591L19.4364 9.24409C20.1919 10.366 21.3142 11.1727 22.5995 11.518C23.8848 11.8632 25.2481 11.7241 26.4421 11.1258C27.636 10.5275 28.5816 9.50977 29.1072 8.25712C29.6328 7.00448 29.7037 5.59992 29.3069 4.29824C28.9102 2.99655 28.0721 1.88396 26.9447 1.16228C25.8174 0.440594 24.4754 0.157627 23.1622 0.364705C21.849 0.571782 20.6516 1.25519 19.7871 2.29095C18.9227 3.32672 18.4486 4.64624 18.4507 6.01015C18.4573 6.33301 18.4908 6.6547 18.5508 6.97171L10.314 10.8138C9.52299 10.053 8.53272 9.54605 7.46487 9.35511C6.39701 9.16417 5.29808 9.2976 4.30308 9.739C3.30808 10.1804 2.46033 10.9106 1.864 11.8398C1.26766 12.769 0.948702 13.8568 0.946303 14.9695C0.943903 16.0823 1.25817 17.1715 1.85049 18.1034C2.44282 19.0353 3.2874 19.7693 4.28049 20.2152C5.27358 20.6612 6.37192 20.7996 7.44059 20.6135C8.50926 20.4274 9.50171 19.9249 10.296 19.1678L18.5538 22.9955C18.4964 23.3124 18.465 23.6337 18.4597 23.956C18.4595 25.0856 18.7856 26.1898 19.3968 27.1291C20.008 28.0684 20.8768 28.8005 21.8933 29.2329C22.9098 29.6653 24.0284 29.7784 25.1076 29.5581C26.1867 29.3378 27.178 28.7939 27.9561 27.9952C28.7341 27.1964 29.264 26.1788 29.4786 25.0709C29.6932 23.963 29.5829 22.8147 29.1618 21.7712C28.7406 20.7276 28.0274 19.8357 27.1125 19.2083C26.1975 18.5809 25.1219 18.2461 24.0215 18.2463H24.0165Z" fill="#C4C4C4"/>
</svg>
