<svg width="30" height="31" viewBox="0 0 30 31" fill="none" xmlns="http://www.w3.org/2000/svg">
<path d="M24.0165 18.663C23.1153 18.6638 22.2277 18.8897 21.4305 19.3212C20.6332 19.7527 19.9502 20.3769 19.4404 21.1399L11.682 17.5443C12.2332 16.1782 12.2353 14.6437 11.688 13.2759L19.4364 9.66084C20.1919 10.7827 21.3142 11.5895 22.5995 11.9347C23.8848 12.2799 25.2481 12.1408 26.4421 11.5425C27.636 10.9443 28.5816 9.92652 29.1072 8.67387C29.6328 7.42123 29.7037 6.01667 29.3069 4.71498C28.9102 3.4133 28.0721 2.3007 26.9447 1.57902C25.8174 0.857342 24.4754 0.574375 23.1622 0.781453C21.849 0.98853 20.6516 1.67194 19.7871 2.7077C18.9227 3.74347 18.4486 5.06299 18.4507 6.4269C18.4573 6.74976 18.4908 7.07145 18.5508 7.38845L10.314 11.2305C9.52299 10.4698 8.53272 9.9628 7.46487 9.77186C6.39701 9.58092 5.29808 9.71435 4.30308 10.1558C3.30808 10.5972 2.46033 11.3273 1.864 12.2565C1.26766 13.1857 0.948702 14.2735 0.946303 15.3863C0.943903 16.499 1.25817 17.5883 1.85049 18.5202C2.44282 19.4521 3.2874 20.1861 4.28049 20.632C5.27358 21.0779 6.37192 21.2163 7.44059 21.0303C8.50926 20.8442 9.50171 20.3417 10.296 19.5845L18.5538 23.4122C18.4964 23.7292 18.465 24.0505 18.4597 24.3728C18.4595 25.5023 18.7856 26.6066 19.3968 27.5459C20.008 28.4852 20.8768 29.2173 21.8933 29.6496C22.9098 30.082 24.0284 30.1952 25.1076 29.9749C26.1867 29.7545 27.178 29.2106 27.9561 28.4119C28.7341 27.6132 29.264 26.5955 29.4786 25.4877C29.6932 24.3798 29.5829 23.2315 29.1618 22.1879C28.7406 21.1444 28.0274 20.2525 27.1125 19.6251C26.1975 18.9976 25.1219 18.6628 24.0215 18.663H24.0165Z" fill="#C4C4C4"/>
</svg>
