<svg width="30" height="30" viewBox="0 0 30 30" fill="none" xmlns="http://www.w3.org/2000/svg">
<path d="M24.0165 18.4545C23.1153 18.4553 22.2277 18.6812 21.4305 19.1127C20.6332 19.5442 19.9502 20.1684 19.4404 20.9314L11.682 17.3358C12.2332 15.9697 12.2353 14.4352 11.688 13.0674L19.4364 9.45234C20.1919 10.5742 21.3142 11.381 22.5995 11.7262C23.8848 12.0714 25.2481 11.9323 26.4421 11.334C27.636 10.7358 28.5816 9.71802 29.1072 8.46538C29.6328 7.21273 29.7037 5.80817 29.3069 4.50649C28.9102 3.2048 28.0721 2.09221 26.9447 1.37053C25.8174 0.648846 24.4754 0.365879 23.1622 0.572957C21.849 0.780034 20.6516 1.46344 19.7871 2.4992C18.9227 3.53497 18.4486 4.85449 18.4507 6.21841C18.4573 6.54126 18.4908 6.86295 18.5508 7.17996L10.314 11.0221C9.52299 10.2613 8.53272 9.7543 7.46487 9.56336C6.39701 9.37242 5.29808 9.50585 4.30308 9.94726C3.30808 10.3887 2.46033 11.1188 1.864 12.048C1.26766 12.9772 0.948702 14.065 0.946303 15.1778C0.943903 16.2905 1.25817 17.3798 1.85049 18.3117C2.44282 19.2436 3.2874 19.9776 4.28049 20.4235C5.27358 20.8694 6.37192 21.0078 7.44059 20.8218C8.50926 20.6357 9.50171 20.1332 10.296 19.376L18.5538 23.2037C18.4964 23.5207 18.465 23.842 18.4597 24.1643C18.4595 25.2938 18.7856 26.3981 19.3968 27.3374C20.008 28.2767 20.8768 29.0088 21.8933 29.4411C22.9098 29.8735 24.0284 29.9867 25.1076 29.7664C26.1867 29.546 27.178 29.0021 27.9561 28.2034C28.7341 27.4047 29.264 26.387 29.4786 25.2792C29.6932 24.1713 29.5829 23.023 29.1618 21.9794C28.7406 20.9359 28.0274 20.044 27.1125 19.4166C26.1975 18.7891 25.1219 18.4543 24.0215 18.4545H24.0165Z" fill="#C4C4C4"/>
</svg>
