<svg width="30" height="30" viewBox="0 0 30 30" fill="none" xmlns="http://www.w3.org/2000/svg">
<path d="M24.0165 18.0798C23.1153 18.0806 22.2277 18.3064 21.4305 18.7379C20.6332 19.1694 19.9502 19.7936 19.4404 20.5566L11.682 16.9611C12.2332 15.5949 12.2353 14.0604 11.688 12.6926L19.4364 9.07758C20.1919 10.1995 21.3142 11.0062 22.5995 11.3514C23.8848 11.6967 25.2481 11.5576 26.4421 10.9593C27.636 10.361 28.5816 9.34327 29.1072 8.09062C29.6328 6.83797 29.7037 5.43342 29.3069 4.13173C28.9102 2.83005 28.0721 1.71745 26.9447 0.995771C25.8174 0.27409 24.4754 -0.00887663 23.1622 0.198201C21.849 0.405278 20.6516 1.08868 19.7871 2.12445C18.9227 3.16021 18.4486 4.47973 18.4507 5.84365C18.4573 6.16651 18.4908 6.48819 18.5508 6.8052L10.314 10.6473C9.52299 9.88654 8.53272 9.37954 7.46487 9.18861C6.39701 8.99767 5.29808 9.1311 4.30308 9.5725C3.30808 10.0139 2.46033 10.7441 1.864 11.6733C1.26766 12.6025 0.948702 13.6903 0.946303 14.803C0.943903 15.9158 1.25817 17.005 1.85049 17.9369C2.44282 18.8688 3.2874 19.6028 4.28049 20.0487C5.27358 20.4947 6.37192 20.6331 7.44059 20.447C8.50926 20.2609 9.50171 19.7584 10.296 19.0013L18.5538 22.829C18.4964 23.1459 18.465 23.4672 18.4597 23.7895C18.4595 24.9191 18.7856 26.0233 19.3968 26.9626C20.008 27.9019 20.8768 28.634 21.8933 29.0664C22.9098 29.4987 24.0284 29.6119 25.1076 29.3916C26.1867 29.1713 27.178 28.6274 27.9561 27.8286C28.7341 27.0299 29.264 26.0123 29.4786 24.9044C29.6932 23.7965 29.5829 22.6482 29.1618 21.6047C28.7406 20.5611 28.0274 19.6692 27.1125 19.0418C26.1975 18.4144 25.1219 18.0796 24.0215 18.0798H24.0165Z" fill="#C4C4C4"/>
</svg>
