<svg width="30" height="30" viewBox="0 0 30 30" fill="none" xmlns="http://www.w3.org/2000/svg">
<path d="M24.0165 18.288C23.1153 18.2888 22.2277 18.5147 21.4305 18.9462C20.6332 19.3777 19.9502 20.0019 19.4404 20.7649L11.682 17.1693C12.2332 15.8032 12.2353 14.2687 11.688 12.9009L19.4364 9.28584C20.1919 10.4077 21.3142 11.2145 22.5995 11.5597C23.8848 11.9049 25.2481 11.7658 26.4421 11.1675C27.636 10.5693 28.5816 9.55152 29.1072 8.29887C29.6328 7.04623 29.7037 5.64167 29.3069 4.33998C28.9102 3.0383 28.0721 1.9257 26.9447 1.20402C25.8174 0.482342 24.4754 0.199375 23.1622 0.406453C21.849 0.61353 20.6516 1.29694 19.7871 2.3327C18.9227 3.36847 18.4486 4.68799 18.4507 6.0519C18.4573 6.37476 18.4908 6.69645 18.5508 7.01345L10.314 10.8555C9.52299 10.0948 8.53272 9.5878 7.46487 9.39686C6.39701 9.20592 5.29808 9.33935 4.30308 9.78075C3.30808 10.2222 2.46033 10.9523 1.864 11.8815C1.26766 12.8107 0.948702 13.8985 0.946303 15.0113C0.943903 16.124 1.25817 17.2133 1.85049 18.1452C2.44282 19.0771 3.2874 19.8111 4.28049 20.257C5.27358 20.7029 6.37192 20.8413 7.44059 20.6553C8.50926 20.4692 9.50171 19.9667 10.296 19.2095L18.5538 23.0372C18.4964 23.3542 18.465 23.6755 18.4597 23.9978C18.4595 25.1273 18.7856 26.2316 19.3968 27.1709C20.008 28.1102 20.8768 28.8423 21.8933 29.2746C22.9098 29.707 24.0284 29.8202 25.1076 29.5999C26.1867 29.3795 27.178 28.8356 27.9561 28.0369C28.7341 27.2382 29.264 26.2205 29.4786 25.1127C29.6932 24.0048 29.5829 22.8565 29.1618 21.8129C28.7406 20.7694 28.0274 19.8775 27.1125 19.2501C26.1975 18.6226 25.1219 18.2878 24.0215 18.288H24.0165Z" fill="#C4C4C4"/>
</svg>
