<svg width="30" height="30" viewBox="0 0 30 30" fill="none" xmlns="http://www.w3.org/2000/svg">
<path d="M24.0165 18.4965C23.1153 18.4973 22.2277 18.7232 21.4305 19.1547C20.6332 19.5862 19.9502 20.2104 19.4404 20.9734L11.682 17.3778C12.2332 16.0117 12.2353 14.4771 11.688 13.1094L19.4364 9.49433C20.1919 10.6162 21.3142 11.423 22.5995 11.7682C23.8848 12.1134 25.2481 11.9743 26.4421 11.376C27.636 10.7778 28.5816 9.76001 29.1072 8.50737C29.6328 7.25472 29.7037 5.85017 29.3069 4.54848C28.9102 3.24679 28.0721 2.1342 26.9447 1.41252C25.8174 0.690838 24.4754 0.407871 23.1622 0.614949C21.849 0.822026 20.6516 1.50543 19.7871 2.5412C18.9227 3.57696 18.4486 4.89648 18.4507 6.2604C18.4573 6.58326 18.4908 6.90494 18.5508 7.22195L10.314 11.064C9.52299 10.3033 8.53272 9.79629 7.46487 9.60535C6.39701 9.41441 5.29808 9.54784 4.30308 9.98925C3.30808 10.4307 2.46033 11.1608 1.864 12.09C1.26766 13.0192 0.948702 14.107 0.946303 15.2198C0.943903 16.3325 1.25817 17.4217 1.85049 18.3537C2.44282 19.2856 3.2874 20.0196 4.28049 20.4655C5.27358 20.9114 6.37192 21.0498 7.44059 20.8638C8.50926 20.6777 9.50171 20.1752 10.296 19.418L18.5538 23.2457C18.4964 23.5627 18.465 23.884 18.4597 24.2063C18.4595 25.3358 18.7856 26.4401 19.3968 27.3794C20.008 28.3187 20.8768 29.0508 21.8933 29.4831C22.9098 29.9155 24.0284 30.0287 25.1076 29.8084C26.1867 29.588 27.178 29.0441 27.9561 28.2454C28.7341 27.4467 29.264 26.429 29.4786 25.3211C29.6932 24.2133 29.5829 23.065 29.1618 22.0214C28.7406 20.9779 28.0274 20.086 27.1125 19.4585C26.1975 18.8311 25.1219 18.4963 24.0215 18.4965H24.0165Z" fill="#C4C4C4"/>
</svg>
