<svg width="30" height="31" viewBox="0 0 30 31" fill="none" xmlns="http://www.w3.org/2000/svg">
<path d="M24.0165 18.6213C23.1153 18.6221 22.2277 18.8479 21.4305 19.2794C20.6332 19.711 19.9502 20.3351 19.4404 21.0981L11.682 17.5026C12.2332 16.1364 12.2353 14.6019 11.688 13.2341L19.4364 9.61909C20.1919 10.741 21.3142 11.5477 22.5995 11.893C23.8848 12.2382 25.2481 12.0991 26.4421 11.5008C27.636 10.9025 28.5816 9.88477 29.1072 8.63212C29.6328 7.37948 29.7037 5.97492 29.3069 4.67324C28.9102 3.37155 28.0721 2.25896 26.9447 1.53728C25.8174 0.815594 24.4754 0.532627 23.1622 0.739705C21.849 0.946782 20.6516 1.63019 19.7871 2.66595C18.9227 3.70172 18.4486 5.02124 18.4507 6.38515C18.4573 6.70801 18.4908 7.0297 18.5508 7.34671L10.314 11.1888C9.52299 10.428 8.53272 9.92105 7.46487 9.73011C6.39701 9.53917 5.29808 9.6726 4.30308 10.114C3.30808 10.5554 2.46033 11.2856 1.864 12.2148C1.26766 13.144 0.948702 14.2318 0.946303 15.3445C0.943903 16.4573 1.25817 17.5465 1.85049 18.4784C2.44282 19.4103 3.2874 20.1443 4.28049 20.5902C5.27358 21.0362 6.37192 21.1746 7.44059 20.9885C8.50926 20.8024 9.50171 20.2999 10.296 19.5428L18.5538 23.3705C18.4964 23.6874 18.465 24.0087 18.4597 24.331C18.4595 25.4606 18.7856 26.5648 19.3968 27.5041C20.008 28.4434 20.8768 29.1755 21.8933 29.6079C22.9098 30.0403 24.0284 30.1534 25.1076 29.9331C26.1867 29.7128 27.178 29.1689 27.9561 28.3702C28.7341 27.5714 29.264 26.5538 29.4786 25.4459C29.6932 24.338 29.5829 23.1897 29.1618 22.1462C28.7406 21.1026 28.0274 20.2107 27.1125 19.5833C26.1975 18.9559 25.1219 18.6211 24.0215 18.6213H24.0165Z" fill="#C4C4C4"/>
</svg>
