<svg width="30" height="30" viewBox="0 0 30 30" fill="none" xmlns="http://www.w3.org/2000/svg">
<path d="M24.0165 18.2043C23.1153 18.2051 22.2277 18.4309 21.4305 18.8625C20.6332 19.294 19.9502 19.9181 19.4404 20.6811L11.682 17.0856C12.2332 15.7195 12.2353 14.1849 11.688 12.8172L19.4364 9.2021C20.1919 10.324 21.3142 11.1307 22.5995 11.476C23.8848 11.8212 25.2481 11.6821 26.4421 11.0838C27.636 10.4855 28.5816 9.46778 29.1072 8.21513C29.6328 6.96249 29.7037 5.55793 29.3069 4.25624C28.9102 2.95456 28.0721 1.84196 26.9447 1.12028C25.8174 0.398602 24.4754 0.115635 23.1622 0.322713C21.849 0.52979 20.6516 1.2132 19.7871 2.24896C18.9227 3.28473 18.4486 4.60425 18.4507 5.96816C18.4573 6.29102 18.4908 6.61271 18.5508 6.92971L10.314 10.7718C9.52299 10.011 8.53272 9.50406 7.46487 9.31312C6.39701 9.12218 5.29808 9.25561 4.30308 9.69701C3.30808 10.1384 2.46033 10.8686 1.864 11.7978C1.26766 12.727 0.948702 13.8148 0.946303 14.9275C0.943903 16.0403 1.25817 17.1295 1.85049 18.0614C2.44282 18.9933 3.2874 19.7273 4.28049 20.1733C5.27358 20.6192 6.37192 20.7576 7.44059 20.5715C8.50926 20.3854 9.50171 19.8829 10.296 19.1258L18.5538 22.9535C18.4964 23.2704 18.465 23.5917 18.4597 23.914C18.4595 25.0436 18.7856 26.1478 19.3968 27.0871C20.008 28.0264 20.8768 28.7585 21.8933 29.1909C22.9098 29.6233 24.0284 29.7364 25.1076 29.5161C26.1867 29.2958 27.178 28.7519 27.9561 27.9532C28.7341 27.1544 29.264 26.1368 29.4786 25.0289C29.6932 23.921 29.5829 22.7727 29.1618 21.7292C28.7406 20.6856 28.0274 19.7937 27.1125 19.1663C26.1975 18.5389 25.1219 18.2041 24.0215 18.2043H24.0165Z" fill="#C4C4C4"/>
</svg>
