<svg width="30" height="30" viewBox="0 0 30 30" fill="none" xmlns="http://www.w3.org/2000/svg">
<path d="M24.0165 18.0378C23.1153 18.0386 22.2277 18.2644 21.4305 18.6959C20.6332 19.1275 19.9502 19.7516 19.4404 20.5146L11.682 16.9191C12.2332 15.5529 12.2353 14.0184 11.688 12.6507L19.4364 9.03559C20.1919 10.1575 21.3142 10.9642 22.5995 11.3095C23.8848 11.6547 25.2481 11.5156 26.4421 10.9173C27.636 10.319 28.5816 9.30127 29.1072 8.04863C29.6328 6.79598 29.7037 5.39143 29.3069 4.08974C28.9102 2.78805 28.0721 1.67546 26.9447 0.953779C25.8174 0.232098 24.4754 -0.0508688 23.1622 0.156209C21.849 0.363286 20.6516 1.04669 19.7871 2.08246C18.9227 3.11822 18.4486 4.43774 18.4507 5.80166C18.4573 6.12452 18.4908 6.4462 18.5508 6.76321L10.314 10.6053C9.52299 9.84454 8.53272 9.33755 7.46487 9.14661C6.39701 8.95567 5.29808 9.0891 4.30308 9.53051C3.30808 9.97191 2.46033 10.7021 1.864 11.6313C1.26766 12.5605 0.948702 13.6483 0.946303 14.761C0.943903 15.8738 1.25817 16.963 1.85049 17.8949C2.44282 18.8268 3.2874 19.5608 4.28049 20.0068C5.27358 20.4527 6.37192 20.5911 7.44059 20.405C8.50926 20.2189 9.50171 19.7164 10.296 18.9593L18.5538 22.787C18.4964 23.1039 18.465 23.4252 18.4597 23.7475C18.4595 24.8771 18.7856 25.9813 19.3968 26.9206C20.008 27.8599 20.8768 28.592 21.8933 29.0244C22.9098 29.4568 24.0284 29.5699 25.1076 29.3496C26.1867 29.1293 27.178 28.5854 27.9561 27.7867C28.7341 26.9879 29.264 25.9703 29.4786 24.8624C29.6932 23.7545 29.5829 22.6062 29.1618 21.5627C28.7406 20.5191 28.0274 19.6272 27.1125 18.9998C26.1975 18.3724 25.1219 18.0376 24.0215 18.0378H24.0165Z" fill="#C4C4C4"/>
</svg>
