<svg width="10" height="18" viewBox="0 0 10 18" fill="none" xmlns="http://www.w3.org/2000/svg">
<path d="M8.46992 6.33467L8.14823 6.67174C8.46036 6.96963 8.71004 7.33109 8.88102 7.73394C9.05202 8.13681 9.14044 8.57202 9.14044 9.01226C9.14044 9.4525 9.05202 9.8877 8.88102 10.2906C8.71004 10.6934 8.46036 11.0549 8.14823 11.3528L8.14821 11.3528L8.14464 11.3562L2.20177 17.1509C2.03819 17.3053 1.82621 17.3887 1.60863 17.388C1.39014 17.3873 1.17781 17.3017 1.0149 17.1449L1.01445 17.1444C0.941382 17.0743 0.882475 16.9887 0.842078 16.8927C0.801672 16.7966 0.780842 16.6926 0.781227 16.5872C0.781612 16.4818 0.803201 16.3779 0.844297 16.2822C0.885383 16.1865 0.944893 16.1014 1.01844 16.0319L1.01847 16.0319L1.02287 16.0276L6.97863 10.2461C7.1452 10.0881 7.27748 9.89718 7.36786 9.68573C7.45867 9.47325 7.50538 9.24421 7.50538 9.01298C7.50538 8.78174 7.45867 8.5527 7.36786 8.34022C7.27749 8.12878 7.14521 7.9379 6.97866 7.7799L1.02292 1.99694L1.02295 1.99691L1.01829 1.99251C0.944391 1.9227 0.884656 1.83719 0.843539 1.74099C0.802411 1.64476 0.780998 1.54035 0.780998 1.43446C0.780998 1.32858 0.802411 1.22417 0.843539 1.12794C0.884656 1.03174 0.944391 0.946223 1.01829 0.87641L1.0183 0.876411L1.01931 0.875452C1.18237 0.720492 1.39402 0.636344 1.6115 0.636344C1.82812 0.636344 2.03896 0.719824 2.20175 0.873608L8.14464 6.66827L8.46992 6.33467Z" fill="#4C7D9E" stroke="black" stroke-width="0.931868"/>
</svg>
