<svg width="10" height="18" viewBox="0 0 10 18" fill="none" xmlns="http://www.w3.org/2000/svg">
<path d="M8.46992 6.20479L8.14823 6.54185C8.46036 6.83974 8.71004 7.20121 8.88102 7.60406C9.05202 8.00693 9.14044 8.44213 9.14044 8.88238C9.14044 9.32262 9.05202 9.75782 8.88102 10.1607C8.71004 10.5635 8.46036 10.925 8.14823 11.2229L8.14821 11.2229L8.14464 11.2264L2.20177 17.021C2.03819 17.1754 1.82621 17.2589 1.60863 17.2581C1.39014 17.2574 1.17781 17.1718 1.0149 17.015L1.01445 17.0146C0.941382 16.9444 0.882475 16.8589 0.842078 16.7628C0.801672 16.6668 0.780842 16.5627 0.781227 16.4573C0.781612 16.3519 0.803201 16.248 0.844297 16.1523C0.885383 16.0566 0.944893 15.9715 1.01844 15.902L1.01847 15.902L1.02287 15.8977L6.97863 10.1162C7.1452 9.95819 7.27748 9.7673 7.36786 9.55585C7.45867 9.34337 7.50538 9.11433 7.50538 8.88309C7.50538 8.65186 7.45867 8.42282 7.36786 8.21034C7.27749 7.9989 7.14521 7.80802 6.97866 7.65002L1.02292 1.86706L1.02295 1.86703L1.01829 1.86263C0.944391 1.79282 0.884656 1.70731 0.843539 1.6111C0.802411 1.51487 0.780998 1.41046 0.780998 1.30458C0.780998 1.1987 0.802411 1.09428 0.843539 0.998056C0.884656 0.901853 0.944391 0.816341 1.01829 0.746527L1.0183 0.746529L1.01931 0.745569C1.18237 0.590609 1.39402 0.506461 1.6115 0.506461C1.82812 0.506461 2.03896 0.589941 2.20175 0.743725L8.14464 6.53839L8.46992 6.20479Z" fill="#4C7D9E" stroke="black" stroke-width="0.931868"/>
</svg>
