<svg width="11" height="18" viewBox="0 0 11 18" fill="none" xmlns="http://www.w3.org/2000/svg">
<path d="M9.10176 6.34786L8.78007 6.68492C9.09219 6.98281 9.34188 7.34427 9.51286 7.74712C9.68385 8.15 9.77228 8.5852 9.77228 9.02544C9.77228 9.46568 9.68385 9.90089 9.51286 10.3038C9.34188 10.7066 9.09219 11.0681 8.78007 11.366L8.78005 11.3659L8.77648 11.3694L2.83361 17.1641C2.67002 17.3185 2.45805 17.4019 2.24046 17.4012C2.02197 17.4004 1.80964 17.3148 1.64674 17.1581L1.64628 17.1576C1.57322 17.0875 1.51431 17.0019 1.47391 16.9059C1.43351 16.8098 1.41268 16.7058 1.41306 16.6004C1.41345 16.495 1.43504 16.3911 1.47613 16.2954C1.51722 16.1997 1.57673 16.1146 1.65028 16.045L1.6503 16.0451L1.65471 16.0408L7.61046 10.2593C7.77703 10.1013 7.90932 9.91037 7.99969 9.69891C8.09051 9.48643 8.13722 9.25739 8.13722 9.02616C8.13722 8.79493 8.09051 8.56589 7.99969 8.3534C7.90933 8.14197 7.77705 7.95108 7.61049 7.79309L1.65475 2.01012L1.65478 2.01009L1.65013 2.0057C1.57623 1.93588 1.51649 1.85037 1.47537 1.75417C1.43425 1.65794 1.41283 1.55353 1.41283 1.44765C1.41283 1.34176 1.43425 1.23735 1.47537 1.14112C1.51649 1.04492 1.57623 0.959407 1.65013 0.889593L1.65013 0.889595L1.65114 0.888635C1.8142 0.733675 2.02585 0.649528 2.24334 0.649528C2.45996 0.649528 2.67079 0.733008 2.83359 0.886791L8.77648 6.68146L9.10176 6.34786Z" fill="#4C7D9E" stroke="black" stroke-width="0.931868"/>
</svg>
