<svg width="10" height="19" viewBox="0 0 10 19" fill="none" xmlns="http://www.w3.org/2000/svg">
<path d="M8.46992 6.83174L8.14823 7.16881C8.46036 7.4667 8.71004 7.82816 8.88102 8.23101C9.05202 8.63388 9.14044 9.06909 9.14044 9.50933C9.14044 9.94957 9.05202 10.3848 8.88102 10.7876C8.71004 11.1905 8.46036 11.552 8.14823 11.8499L8.14821 11.8498L8.14464 11.8533L2.20177 17.648C2.03819 17.8024 1.82621 17.8858 1.60863 17.8851C1.39014 17.8843 1.17781 17.7987 1.0149 17.6419L1.01445 17.6415C0.941382 17.5714 0.882475 17.4858 0.842078 17.3898C0.801672 17.2937 0.780842 17.1897 0.781227 17.0843C0.781612 16.9788 0.803201 16.875 0.844297 16.7793C0.885383 16.6836 0.944893 16.5985 1.01844 16.5289L1.01847 16.529L1.02287 16.5247L6.97863 10.7432C7.1452 10.5851 7.27748 10.3943 7.36786 10.1828C7.45867 9.97032 7.50538 9.74128 7.50538 9.51005C7.50538 9.27881 7.45867 9.04977 7.36786 8.83729C7.27749 8.62585 7.14521 8.43497 6.97866 8.27697L1.02292 2.49401L1.02295 2.49398L1.01829 2.48958C0.944391 2.41977 0.884656 2.33426 0.843539 2.23806C0.802411 2.14183 0.780998 2.03742 0.780998 1.93153C0.780998 1.82565 0.802411 1.72124 0.843539 1.62501C0.884656 1.52881 0.944391 1.44329 1.01829 1.37348L1.0183 1.37348L1.01931 1.37252C1.18237 1.21756 1.39402 1.13341 1.6115 1.13341C1.82812 1.13341 2.03896 1.21689 2.20175 1.37068L8.14464 7.16534L8.46992 6.83174Z" fill="#4C7D9E" stroke="black" stroke-width="0.931868"/>
</svg>
