<svg width="32" height="30" viewBox="0 0 32 30" fill="none" xmlns="http://www.w3.org/2000/svg">
<path d="M23.9953 28.6157H8.27375C6.60567 28.6157 5.0059 27.9531 3.8263 26.7737C2.6467 25.5943 1.98389 23.9946 1.98364 22.3265V12.4329C1.98367 11.3517 2.26239 10.2888 2.79288 9.3467C3.32337 8.40462 4.08774 7.61518 5.01221 7.05458L12.8744 2.2904C13.8574 1.69479 14.9847 1.37988 16.1341 1.37988C17.2834 1.37988 18.4108 1.69479 19.3937 2.2904L27.255 7.05458C28.1796 7.61507 28.9442 8.40445 29.4748 9.34654C30.0055 10.2886 30.2844 11.3516 30.2845 12.4329V22.3265C30.2842 23.9944 29.6215 25.5939 28.4421 26.7733C27.2628 27.9527 25.6632 28.6154 23.9953 28.6157V28.6157Z" stroke="white" stroke-width="2.32967" stroke-linecap="round" stroke-linejoin="round"/>
<path d="M11.4172 28.6157H20.8509" stroke="white" stroke-width="2.32967" stroke-linecap="round" stroke-linejoin="round"/>
</svg>
