<svg width="31" height="30" viewBox="0 0 31 30" fill="none" xmlns="http://www.w3.org/2000/svg">
<path d="M11.0438 14.9978H15.548M20.0522 14.9978H15.548M15.548 14.9978V10.4937M15.548 14.9978V19.502" stroke="white" stroke-width="2.32967" stroke-linecap="round" stroke-linejoin="round"/>
<path d="M29.0602 2.38649V27.6094C29.0602 27.8482 28.9653 28.0773 28.7964 28.2462C28.6275 28.4151 28.3984 28.51 28.1595 28.51H2.93666C2.69779 28.51 2.46871 28.4151 2.29981 28.2462C2.1309 28.0773 2.03601 27.8482 2.03601 27.6094V2.38649C2.03601 2.14762 2.1309 1.91854 2.29981 1.74963C2.46871 1.58073 2.69779 1.48584 2.93666 1.48584H28.1595C28.3984 1.48584 28.6275 1.58073 28.7964 1.74963C28.9653 1.91854 29.0602 2.14762 29.0602 2.38649Z" stroke="white" stroke-width="2.32967" stroke-linecap="round" stroke-linejoin="round"/>
</svg>
