<svg width="18" height="30" viewBox="0 0 18 30" fill="none" xmlns="http://www.w3.org/2000/svg">
<path d="M1.30432 28.668V21.1124M1.30432 21.1124V2.33991C1.3043 2.17839 1.34743 2.0198 1.42924 1.88054C1.51106 1.74128 1.62858 1.6264 1.76967 1.54777C1.91076 1.46915 2.07029 1.42965 2.23177 1.43334C2.39324 1.43704 2.5508 1.4838 2.68815 1.56879L15.9715 9.79206C16.1006 9.87199 16.2076 9.98308 16.2826 10.1151C16.3576 10.2472 16.3983 10.3959 16.4008 10.5478C16.4034 10.6996 16.3677 10.8497 16.2972 10.9842C16.2267 11.1187 16.1235 11.2333 15.9971 11.3175L1.30432 21.1124Z" stroke="white" stroke-width="2.32967" stroke-linecap="round" stroke-linejoin="round"/>
</svg>
