<svg width="31" height="30" viewBox="0 0 31 30" fill="none" xmlns="http://www.w3.org/2000/svg">
<path d="M22.2916 21.8599L29.1008 28.669" stroke="white" stroke-width="2.32967" stroke-linecap="round" stroke-linejoin="round"/>
<path d="M1.86462 13.1057C1.86462 15.4143 2.54921 17.6711 3.83181 19.5906C5.11441 21.5102 6.93742 23.0063 9.0703 23.8897C11.2032 24.7732 13.5502 25.0044 15.8144 24.554C18.0787 24.1036 20.1585 22.9919 21.791 21.3594C23.4234 19.727 24.5351 17.6472 24.9855 15.3829C25.4359 13.1186 25.2047 10.7717 24.3213 8.63878C23.4378 6.5059 21.9417 4.68289 20.0221 3.40029C18.1026 2.11769 15.8458 1.43311 13.5372 1.43311C10.4414 1.43311 7.47248 2.66289 5.28344 4.85192C3.09441 7.04096 1.86462 10.0099 1.86462 13.1057V13.1057Z" stroke="white" stroke-width="2.32967" stroke-linecap="round" stroke-linejoin="round"/>
</svg>
