<svg width="14" height="15" viewBox="0 0 14 15" fill="none" xmlns="http://www.w3.org/2000/svg">
<path d="M0.213646 13.8236L1.13684 10.4491C0.923112 9.97983 0.76531 9.4858 0.666848 8.97773C0.569191 8.46641 0.520469 7.94651 0.521376 7.42546C0.514687 6.52882 0.688338 5.64042 1.03146 4.81584C1.69792 3.21198 2.94229 1.93452 4.50462 1.25035C5.30781 0.89722 6.17338 0.718135 7.04712 0.724312C7.92054 0.717445 8.78593 0.895713 9.58916 1.24796C11.1515 1.93213 12.3959 3.20959 13.0623 4.81345C13.4059 5.63873 13.5797 6.52798 13.5729 7.42546C13.5796 8.32209 13.4059 9.2105 13.0628 10.0351C12.3961 11.6388 11.1516 12.9161 9.58916 13.6001C8.78593 13.9523 7.92054 14.1306 7.04712 14.1237C6.53892 14.1246 6.03185 14.0744 5.53318 13.9739C5.03828 13.873 4.55705 13.7111 4.0999 13.4919L0.812787 14.4396C0.729945 14.4686 0.640678 14.4723 0.555836 14.4502C0.470993 14.4281 0.394229 14.3812 0.334873 14.3152C0.270366 14.2542 0.224553 14.1752 0.203027 14.0879C0.1815 14.0006 0.18519 13.9088 0.213646 13.8236V13.8236Z" fill="#C4C4C4"/>
</svg>
