<svg width="14" height="14" viewBox="0 0 14 14" fill="none" xmlns="http://www.w3.org/2000/svg">
<path d="M0.213646 13.0995L1.13684 9.72499C0.923112 9.25571 0.76531 8.76168 0.666848 8.25361C0.569191 7.74229 0.520469 7.22239 0.521376 6.70133C0.514687 5.8047 0.688338 4.91629 1.03146 4.09172C1.69792 2.48786 2.94229 1.2104 4.50462 0.526231C5.30781 0.173099 6.17338 -0.00598571 7.04712 0.0001911C7.92054 -0.00667582 8.78593 0.171592 9.58916 0.523838C11.1515 1.20801 12.3959 2.48547 13.0623 4.08932C13.4059 4.91461 13.5797 5.80386 13.5729 6.70133C13.5796 7.59797 13.4059 8.48637 13.0628 9.31095C12.3961 10.9147 11.1516 12.192 9.58916 12.876C8.78593 13.2282 7.92054 13.4065 7.04712 13.3996C6.53892 13.4005 6.03185 13.3503 5.53318 13.2498C5.03828 13.1489 4.55705 12.987 4.0999 12.7678L0.812787 13.7155C0.729945 13.7445 0.640678 13.7482 0.555836 13.7261C0.470993 13.704 0.394229 13.6571 0.334873 13.5911C0.270366 13.5301 0.224553 13.4511 0.203027 13.3638C0.1815 13.2765 0.18519 13.1847 0.213646 13.0995V13.0995Z" fill="#C4C4C4"/>
</svg>
