<svg width="14" height="15" viewBox="0 0 14 15" fill="none" xmlns="http://www.w3.org/2000/svg">
<path d="M0.213646 14.0946L1.13684 10.7201C0.923112 10.2508 0.76531 9.7568 0.666848 9.24872C0.569191 8.7374 0.520469 8.21751 0.521376 7.69645C0.514687 6.79982 0.688338 5.91141 1.03146 5.08684C1.69792 3.48298 2.94229 2.20552 4.50462 1.52135C5.30781 1.16822 6.17338 0.989131 7.04712 0.995308C7.92054 0.988441 8.78593 1.16671 9.58916 1.51895C11.1515 2.20313 12.3959 3.48058 13.0623 5.08444C13.4059 5.90972 13.5797 6.79898 13.5729 7.69645C13.5796 8.59309 13.4059 9.48149 13.0628 10.3061C12.3961 11.9098 11.1516 13.1871 9.58916 13.8711C8.78593 14.2233 7.92054 14.4016 7.04712 14.3947C6.53892 14.3956 6.03185 14.3454 5.53318 14.2449C5.03828 14.144 4.55705 13.9821 4.0999 13.7629L0.812787 14.7106C0.729945 14.7396 0.640678 14.7433 0.555836 14.7212C0.470993 14.6991 0.394229 14.6522 0.334873 14.5862C0.270366 14.5252 0.224553 14.4462 0.203027 14.3589C0.1815 14.2716 0.18519 14.1798 0.213646 14.0946V14.0946Z" fill="#C4C4C4"/>
</svg>
