<svg width="14" height="14" viewBox="0 0 14 14" fill="none" xmlns="http://www.w3.org/2000/svg">
<path d="M0.213646 13.1151L1.13684 9.74061C0.923112 9.27134 0.76531 8.77731 0.666848 8.26923C0.569191 7.75791 0.520469 7.23801 0.521376 6.71696C0.514687 5.82032 0.688338 4.93192 1.03146 4.10734C1.69792 2.50348 2.94229 1.22603 4.50462 0.541856C5.30781 0.188724 6.17338 0.00963929 7.04712 0.0158161C7.92054 0.00894918 8.78593 0.187217 9.58916 0.539463C11.1515 1.22363 12.3959 2.50109 13.0623 4.10495C13.4059 4.93023 13.5797 5.81948 13.5729 6.71696C13.5796 7.6136 13.4059 8.502 13.0628 9.32658C12.3961 10.9303 11.1516 12.2076 9.58916 12.8916C8.78593 13.2438 7.92054 13.4221 7.04712 13.4152C6.53892 13.4161 6.03185 13.366 5.53318 13.2654C5.03828 13.1645 4.55705 13.0026 4.0999 12.7834L0.812787 13.7311C0.729945 13.7602 0.640678 13.7638 0.555836 13.7417C0.470993 13.7196 0.394229 13.6727 0.334873 13.6067C0.270366 13.5457 0.224553 13.4667 0.203027 13.3794C0.1815 13.2921 0.18519 13.2003 0.213646 13.1151V13.1151Z" fill="#C4C4C4"/>
</svg>
