<svg width="14" height="14" viewBox="0 0 14 14" fill="none" xmlns="http://www.w3.org/2000/svg">
<path d="M0.213646 13.118L1.13684 9.74354C0.923112 9.27426 0.76531 8.78024 0.666848 8.27216C0.569191 7.76084 0.520469 7.24094 0.521376 6.71989C0.514687 5.82325 0.688338 4.93485 1.03146 4.11027C1.69792 2.50641 2.94229 1.22896 4.50462 0.544786C5.30781 0.191654 6.17338 0.012569 7.04712 0.0187458C7.92054 0.0118789 8.78593 0.190146 9.58916 0.542392C11.1515 1.22656 12.3959 2.50402 13.0623 4.10788C13.4059 4.93316 13.5797 5.82241 13.5729 6.71989C13.5796 7.61653 13.4059 8.50493 13.0628 9.32951C12.3961 10.9333 11.1516 12.2106 9.58916 12.8945C8.78593 13.2468 7.92054 13.425 7.04712 13.4182C6.53892 13.4191 6.03185 13.3689 5.53318 13.2683C5.03828 13.1674 4.55705 13.0056 4.0999 12.7863L0.812787 13.7341C0.729945 13.7631 0.640678 13.7668 0.555836 13.7447C0.470993 13.7226 0.394229 13.6757 0.334873 13.6096C0.270366 13.5486 0.224553 13.4696 0.203027 13.3823C0.1815 13.2951 0.18519 13.2032 0.213646 13.118V13.118Z" fill="#C4C4C4"/>
</svg>
