<svg width="14" height="15" viewBox="0 0 14 15" fill="none" xmlns="http://www.w3.org/2000/svg">
<path d="M0.213646 14.0917L1.13684 10.7172C0.923112 10.2479 0.76531 9.75387 0.666848 9.24579C0.569191 8.73447 0.520469 8.21458 0.521376 7.69352C0.514687 6.79689 0.688338 5.90848 1.03146 5.08391C1.69792 3.48005 2.94229 2.20259 4.50462 1.51842C5.30781 1.16529 6.17338 0.986202 7.04712 0.992379C7.92054 0.985512 8.78593 1.16378 9.58916 1.51603C11.1515 2.2002 12.3959 3.47765 13.0623 5.08151C13.4059 5.90679 13.5797 6.79605 13.5729 7.69352C13.5796 8.59016 13.4059 9.47856 13.0628 10.3031C12.3961 11.9069 11.1516 13.1842 9.58916 13.8681C8.78593 14.2204 7.92054 14.3987 7.04712 14.3918C6.53892 14.3927 6.03185 14.3425 5.53318 14.242C5.03828 14.141 4.55705 13.9792 4.0999 13.76L0.812787 14.7077C0.729945 14.7367 0.640678 14.7404 0.555836 14.7183C0.470993 14.6962 0.394229 14.6493 0.334873 14.5833C0.270366 14.5222 0.224553 14.4433 0.203027 14.356C0.1815 14.2687 0.18519 14.1769 0.213646 14.0917V14.0917Z" fill="#C4C4C4"/>
</svg>
