<svg width="14" height="15" viewBox="0 0 14 15" fill="none" xmlns="http://www.w3.org/2000/svg">
<path d="M0.213646 14.0892L1.13684 10.7147C0.923112 10.2455 0.76531 9.75143 0.666848 9.24335C0.569191 8.73203 0.520469 8.21214 0.521376 7.69108C0.514687 6.79444 0.688338 5.90604 1.03146 5.08146C1.69792 3.4776 2.94229 2.20015 4.50462 1.51598C5.30781 1.16285 6.17338 0.98376 7.04712 0.989937C7.92054 0.98307 8.78593 1.16134 9.58916 1.51358C11.1515 2.19776 12.3959 3.47521 13.0623 5.07907C13.4059 5.90435 13.5797 6.79361 13.5729 7.69108C13.5796 8.58772 13.4059 9.47612 13.0628 10.3007C12.3961 11.9045 11.1516 13.1817 9.58916 13.8657C8.78593 14.218 7.92054 14.3962 7.04712 14.3894C6.53892 14.3903 6.03185 14.3401 5.53318 14.2395C5.03828 14.1386 4.55705 13.9768 4.0999 13.7575L0.812787 14.7053C0.729945 14.7343 0.640678 14.738 0.555836 14.7159C0.470993 14.6938 0.394229 14.6469 0.334873 14.5808C0.270366 14.5198 0.224553 14.4408 0.203027 14.3535C0.1815 14.2662 0.18519 14.1744 0.213646 14.0892V14.0892Z" fill="#C4C4C4"/>
</svg>
