<svg width="14" height="15" viewBox="0 0 14 15" fill="none" xmlns="http://www.w3.org/2000/svg">
<path d="M0.213646 14.097L1.13684 10.7225C0.923112 10.2533 0.76531 9.75924 0.666848 9.25116C0.569191 8.73984 0.520469 8.21995 0.521376 7.69889C0.514687 6.80226 0.688338 5.91385 1.03146 5.08928C1.69792 3.48542 2.94229 2.20796 4.50462 1.52379C5.30781 1.17066 6.17338 0.991573 7.04712 0.99775C7.92054 0.990883 8.78593 1.16915 9.58916 1.5214C11.1515 2.20557 12.3959 3.48302 13.0623 5.08688C13.4059 5.91217 13.5797 6.80142 13.5729 7.69889C13.5796 8.59553 13.4059 9.48393 13.0628 10.3085C12.3961 11.9123 11.1516 13.1896 9.58916 13.8735C8.78593 14.2258 7.92054 14.404 7.04712 14.3972C6.53892 14.3981 6.03185 14.3479 5.53318 14.2473C5.03828 14.1464 4.55705 13.9846 4.0999 13.7653L0.812787 14.7131C0.729945 14.7421 0.640678 14.7458 0.555836 14.7237C0.470993 14.7016 0.394229 14.6547 0.334873 14.5886C0.270366 14.5276 0.224553 14.4486 0.203027 14.3614C0.1815 14.2741 0.18519 14.1822 0.213646 14.097V14.097Z" fill="#C4C4C4"/>
</svg>
