<svg width="14" height="14" viewBox="0 0 14 14" fill="none" xmlns="http://www.w3.org/2000/svg">
<path d="M0.529564 13.1127L1.45275 9.73817C1.23903 9.26889 1.08123 8.77487 0.982766 8.26679C0.885109 7.75547 0.836387 7.23557 0.837294 6.71452C0.830605 5.81788 1.00426 4.92948 1.34738 4.1049C2.01383 2.50104 3.25821 1.22359 4.82053 0.539414C5.62373 0.186283 6.4893 0.00719788 7.36304 0.0133747C8.23645 0.00650778 9.10185 0.184775 9.90507 0.537021C11.4674 1.22119 12.7118 2.49865 13.3782 4.10251C13.7218 4.92779 13.8956 5.81704 13.8888 6.71452C13.8955 7.61115 13.7218 8.49956 13.3787 9.32413C12.712 10.9279 11.4675 12.2052 9.90507 12.8891C9.10185 13.2414 8.23645 13.4197 7.36304 13.4128C6.85484 13.4137 6.34777 13.3635 5.8491 13.263C5.3542 13.162 4.87297 13.0002 4.41582 12.781L1.1287 13.7287C1.04586 13.7577 0.956596 13.7614 0.871754 13.7393C0.786911 13.7172 0.710147 13.6703 0.650791 13.6043C0.586284 13.5432 0.540471 13.4643 0.518945 13.377C0.497418 13.2897 0.501108 13.1978 0.529564 13.1127V13.1127Z" fill="#C4C4C4"/>
</svg>
