<svg width="14" height="14" viewBox="0 0 14 14" fill="none" xmlns="http://www.w3.org/2000/svg">
<path d="M0.213646 13.1068L1.13684 9.73231C0.923112 9.26303 0.76531 8.76901 0.666848 8.26093C0.569191 7.74961 0.520469 7.22971 0.521376 6.70866C0.514687 5.81202 0.688338 4.92362 1.03146 4.09904C1.69792 2.49518 2.94229 1.21773 4.50462 0.533555C5.30781 0.180423 6.17338 0.00133851 7.04712 0.00751532C7.92054 0.000648403 8.78593 0.178916 9.58916 0.531162C11.1515 1.21533 12.3959 2.49279 13.0623 4.09665C13.4059 4.92193 13.5797 5.81118 13.5729 6.70866C13.5796 7.6053 13.4059 8.4937 13.0628 9.31828C12.3961 10.922 11.1516 12.1993 9.58916 12.8833C8.78593 13.2355 7.92054 13.4138 7.04712 13.4069C6.53892 13.4078 6.03185 13.3576 5.53318 13.2571C5.03828 13.1562 4.55705 12.9943 4.0999 12.7751L0.812787 13.7228C0.729945 13.7519 0.640678 13.7555 0.555836 13.7334C0.470993 13.7113 0.394229 13.6644 0.334873 13.5984C0.270366 13.5374 0.224553 13.4584 0.203027 13.3711C0.1815 13.2838 0.18519 13.192 0.213646 13.1068V13.1068Z" fill="#C4C4C4"/>
</svg>
