<svg width="14" height="14" viewBox="0 0 14 14" fill="none" xmlns="http://www.w3.org/2000/svg">
<path d="M0.213646 13.1097L1.13684 9.73524C0.923112 9.26596 0.76531 8.77194 0.666848 8.26386C0.569191 7.75254 0.520469 7.23264 0.521376 6.71159C0.514687 5.81495 0.688338 4.92655 1.03146 4.10197C1.69792 2.49811 2.94229 1.22066 4.50462 0.536485C5.30781 0.183353 6.17338 0.0042682 7.04712 0.010445C7.92054 0.00357809 8.78593 0.181845 9.58916 0.534091C11.1515 1.21826 12.3959 2.49572 13.0623 4.09958C13.4059 4.92486 13.5797 5.81411 13.5729 6.71159C13.5796 7.60822 13.4059 8.49663 13.0628 9.3212C12.3961 10.925 11.1516 12.2023 9.58916 12.8862C8.78593 13.2385 7.92054 13.4167 7.04712 13.4099C6.53892 13.4108 6.03185 13.3606 5.53318 13.26C5.03828 13.1591 4.55705 12.9973 4.0999 12.778L0.812787 13.7258C0.729945 13.7548 0.640678 13.7585 0.555836 13.7364C0.470993 13.7143 0.394229 13.6674 0.334873 13.6013C0.270366 13.5403 0.224553 13.4613 0.203027 13.374C0.1815 13.2868 0.18519 13.1949 0.213646 13.1097V13.1097Z" fill="#C4C4C4"/>
</svg>
