<svg width="14" height="14" viewBox="0 0 14 14" fill="none" xmlns="http://www.w3.org/2000/svg">
<path d="M0.213646 13.1024L1.13684 9.72792C0.923112 9.25864 0.76531 8.76461 0.666848 8.25654C0.569191 7.74522 0.520469 7.22532 0.521376 6.70426C0.514687 5.80763 0.688338 4.91922 1.03146 4.09465C1.69792 2.49079 2.94229 1.21333 4.50462 0.529161C5.30781 0.176029 6.17338 -0.00305602 7.04712 0.00312079C7.92054 -0.00374613 8.78593 0.174521 9.58916 0.526767C11.1515 1.21094 12.3959 2.48839 13.0623 4.09225C13.4059 4.91754 13.5797 5.80679 13.5729 6.70426C13.5796 7.6009 13.4059 8.4893 13.0628 9.31388C12.3961 10.9176 11.1516 12.1949 9.58916 12.8789C8.78593 13.2311 7.92054 13.4094 7.04712 13.4025C6.53892 13.4034 6.03185 13.3533 5.53318 13.2527C5.03828 13.1518 4.55705 12.99 4.0999 12.7707L0.812787 13.7184C0.729945 13.7475 0.640678 13.7511 0.555836 13.729C0.470993 13.707 0.394229 13.66 0.334873 13.594C0.270366 13.533 0.224553 13.454 0.203027 13.3667C0.1815 13.2794 0.18519 13.1876 0.213646 13.1024V13.1024Z" fill="#C4C4C4"/>
</svg>
