<svg width="14" height="14" viewBox="0 0 14 14" fill="none" xmlns="http://www.w3.org/2000/svg">
<path d="M0.213646 13.1049L1.13684 9.73036C0.923112 9.26108 0.76531 8.76705 0.666848 8.25898C0.569191 7.74766 0.520469 7.22776 0.521376 6.70671C0.514687 5.81007 0.688338 4.92167 1.03146 4.09709C1.69792 2.49323 2.94229 1.21577 4.50462 0.531602C5.30781 0.17847 6.17338 -0.000614616 7.04712 0.00556219C7.92054 -0.00130472 8.78593 0.176963 9.58916 0.529209C11.1515 1.21338 12.3959 2.49084 13.0623 4.0947C13.4059 4.91998 13.5797 5.80923 13.5729 6.70671C13.5796 7.60334 13.4059 8.49175 13.0628 9.31632C12.3961 10.9201 11.1516 12.1974 9.58916 12.8813C8.78593 13.2336 7.92054 13.4118 7.04712 13.405C6.53892 13.4059 6.03185 13.3557 5.53318 13.2552C5.03828 13.1542 4.55705 12.9924 4.0999 12.7732L0.812787 13.7209C0.729945 13.7499 0.640678 13.7536 0.555836 13.7315C0.470993 13.7094 0.394229 13.6625 0.334873 13.5964C0.270366 13.5354 0.224553 13.4565 0.203027 13.3692C0.1815 13.2819 0.18519 13.19 0.213646 13.1049V13.1049Z" fill="#C4C4C4"/>
</svg>
