<svg width="27" height="34" viewBox="0 0 27 34" fill="none" xmlns="http://www.w3.org/2000/svg">
<path d="M13.0478 33.7867C11.7873 33.7848 10.5793 33.2832 9.68838 32.3917C8.79745 31.5001 8.29624 30.2913 8.29513 29.0309H1.95224C1.65838 29.0295 1.37098 28.9467 1.12139 28.7916C0.871797 28.6365 0.669951 28.4156 0.538513 28.1528C0.407076 27.8899 0.350906 27.5955 0.376528 27.3028C0.40215 27.0101 0.508566 26.7298 0.683663 26.4938L1.95224 24.7493V14.0628C1.95729 11.4558 2.93534 8.94398 4.69461 7.0201C6.45388 5.09623 8.86772 3.89878 11.4638 3.66119V2.07683C11.4638 1.65588 11.6312 1.25243 11.9289 0.95477C12.2265 0.657112 12.6304 0.489746 13.0514 0.489746C13.4723 0.489746 13.8758 0.657112 14.1735 0.95477C14.4711 1.25243 14.6385 1.65588 14.6385 2.07683V3.66119C16.0987 3.79143 17.5147 4.22961 18.7932 4.94706C17.9929 5.41667 17.3046 6.05508 16.7766 6.81808C15.9916 6.49564 15.1625 6.29287 14.3172 6.21655C13.96 6.16485 13.5992 6.14391 13.2384 6.15376H12.9663C12.6993 6.14594 12.4321 6.15551 12.1664 6.18288H12.1559H12.1382C12.1304 6.18246 12.1227 6.18246 12.115 6.18288L12.0799 6.18743C12.0133 6.19488 11.9201 6.20359 11.7887 6.21291C9.71381 6.39406 7.78248 7.34783 6.37679 8.88475C4.97111 10.4217 4.19346 12.4305 4.19773 14.5133V25.7048C4.20003 25.8085 4.22319 25.9106 4.26599 26.0051C4.30878 26.0996 4.3702 26.1843 4.44663 26.2544C4.52305 26.3246 4.61318 26.3783 4.71099 26.4128C4.8088 26.4473 4.91234 26.4622 5.01585 26.4556C5.0208 26.4555 5.02583 26.4564 5.03041 26.4583H21.1247C21.2257 26.4611 21.3262 26.4438 21.4205 26.4073C21.5147 26.3708 21.6007 26.3155 21.6734 26.2453C21.7462 26.1752 21.8045 26.0916 21.8445 25.9987C21.8845 25.9059 21.9055 25.8059 21.9064 25.7048V16.67H21.9583C22.7068 16.671 23.4494 16.5379 24.151 16.2769V24.7938L25.4196 26.492C25.5947 26.728 25.7011 27.0073 25.7267 27.3001C25.7523 27.5928 25.6962 27.8872 25.5647 28.15C25.4333 28.4129 25.2319 28.6338 24.9823 28.7889C24.7327 28.944 24.4449 29.0276 24.151 29.0291H17.8086C17.8068 30.291 17.3047 31.5006 16.4121 32.3926C15.5196 33.2846 14.3096 33.7858 13.0478 33.7867V33.7867ZM11.4634 29.0309C11.4634 29.4519 11.6308 29.8553 11.9284 30.153C12.2261 30.4507 12.63 30.618 13.0509 30.618C13.4719 30.618 13.8753 30.4507 14.173 30.153C14.4707 29.8553 14.638 29.4519 14.638 29.0309H11.4634Z" fill="#282828"/>
<path d="M21.7251 15.2747C24.2984 15.2747 26.3845 13.1887 26.3845 10.6154C26.3845 8.04211 24.2984 5.95605 21.7251 5.95605C19.1519 5.95605 17.0658 8.04211 17.0658 10.6154C17.0658 13.1887 19.1519 15.2747 21.7251 15.2747Z" fill="#FF0000"/>
</svg>
