<svg width="15" height="14" viewBox="0 0 15 14" fill="none" xmlns="http://www.w3.org/2000/svg">
<path d="M11.0056 0.0234375C10.3342 0.0341744 9.67746 0.226588 9.1017 0.581247C8.52593 0.935906 8.05152 1.44025 7.72638 2.04335C7.40127 1.44032 6.92694 0.936021 6.35126 0.581366C5.77559 0.226711 5.11895 0.0342581 4.44765 0.0234375C3.37751 0.0715933 2.36935 0.552331 1.6432 1.36074C0.917043 2.16915 0.531842 3.2396 0.571653 4.3385C0.571653 8.48507 7.10439 13.274 7.38181 13.4774L7.72638 13.7278L8.07094 13.4774C8.3507 13.2754 14.8806 8.48507 14.8806 4.3385C14.9205 3.23976 14.5354 2.16945 13.8094 1.36107C13.0835 0.552683 12.0756 0.0718387 11.0056 0.0234375V0.0234375Z" fill="#C4C4C4"/>
</svg>
