<svg width="15" height="14" viewBox="0 0 15 14" fill="none" xmlns="http://www.w3.org/2000/svg">
<path d="M11.0056 0.015625C10.3342 0.0263619 9.67746 0.218775 9.1017 0.573434C8.52593 0.928093 8.05152 1.43244 7.72638 2.03554C7.40127 1.43251 6.92694 0.928208 6.35126 0.573553C5.77559 0.218899 5.11895 0.0264456 4.44765 0.015625C3.37751 0.0637808 2.36935 0.544518 1.6432 1.35293C0.917043 2.16134 0.531842 3.23179 0.571653 4.33068C0.571653 8.47725 7.10439 13.2662 7.38181 13.4696L7.72638 13.7199L8.07094 13.4696C8.3507 13.2676 14.8806 8.47725 14.8806 4.33068C14.9205 3.23195 14.5354 2.16164 13.8094 1.35325C13.0835 0.544871 12.0756 0.0640262 11.0056 0.015625V0.015625Z" fill="#C4C4C4"/>
</svg>
