<svg width="15" height="14" viewBox="0 0 15 14" fill="none" xmlns="http://www.w3.org/2000/svg">
<path d="M11.0056 0.0131836C10.3342 0.0239205 9.67746 0.216334 9.1017 0.570993C8.52593 0.925652 8.05152 1.43 7.72638 2.0331C7.40127 1.43007 6.92694 0.925767 6.35126 0.571112C5.77559 0.216457 5.11895 0.0240042 4.44765 0.0131836C3.37751 0.0613394 2.36935 0.542077 1.6432 1.35049C0.917043 2.1589 0.531842 3.22935 0.571653 4.32824C0.571653 8.47481 7.10439 13.2637 7.38181 13.4672L7.72638 13.7175L8.07094 13.4672C8.3507 13.2652 14.8806 8.47481 14.8806 4.32824C14.9205 3.22951 14.5354 2.15919 13.8094 1.35081C13.0835 0.542429 12.0756 0.0615848 11.0056 0.0131836V0.0131836Z" fill="#C4C4C4"/>
</svg>
