<svg width="15" height="14" viewBox="0 0 15 14" fill="none" xmlns="http://www.w3.org/2000/svg">
<path d="M11.0056 0.0283203C10.3342 0.0390572 9.67746 0.231471 9.1017 0.58613C8.52593 0.940789 8.05152 1.44513 7.72638 2.04824C7.40127 1.4452 6.92694 0.940903 6.35126 0.586249C5.77559 0.231594 5.11895 0.0391409 4.44765 0.0283203C3.37751 0.0764761 2.36935 0.557214 1.6432 1.36562C0.917043 2.17403 0.531842 3.24449 0.571653 4.34338C0.571653 8.48995 7.10439 13.2789 7.38181 13.4823L7.72638 13.7326L8.07094 13.4823C8.3507 13.2803 14.8806 8.48995 14.8806 4.34338C14.9205 3.24464 14.5354 2.17433 13.8094 1.36595C13.0835 0.557566 12.0756 0.0767215 11.0056 0.0283203V0.0283203Z" fill="#C4C4C4"/>
</svg>
