<svg width="15" height="14" viewBox="0 0 15 14" fill="none" xmlns="http://www.w3.org/2000/svg">
<path d="M11.0056 0.0336914C10.3342 0.0444283 9.67746 0.236842 9.1017 0.591501C8.52593 0.94616 8.05152 1.45051 7.72638 2.05361C7.40127 1.45058 6.92694 0.946274 6.35126 0.59162C5.77559 0.236965 5.11895 0.044512 4.44765 0.0336914C3.37751 0.0818472 2.36935 0.562585 1.6432 1.37099C0.917043 2.1794 0.531842 3.24986 0.571653 4.34875C0.571653 8.49532 7.10439 13.2842 7.38181 13.4877L7.72638 13.738L8.07094 13.4877C8.3507 13.2857 14.8806 8.49532 14.8806 4.34875C14.9205 3.25001 14.5354 2.1797 13.8094 1.37132C13.0835 0.562937 12.0756 0.0820926 11.0056 0.0336914V0.0336914Z" fill="#C4C4C4"/>
</svg>
