<svg width="15" height="14" viewBox="0 0 15 14" fill="none" xmlns="http://www.w3.org/2000/svg">
<path d="M11.0056 0.0102539C10.3342 0.0209908 9.67746 0.213404 9.1017 0.568063C8.52593 0.922722 8.05152 1.42707 7.72638 2.03017C7.40127 1.42714 6.92694 0.922837 6.35126 0.568182C5.77559 0.213527 5.11895 0.0210745 4.44765 0.0102539C3.37751 0.0584097 2.36935 0.539147 1.6432 1.34756C0.917043 2.15597 0.531842 3.22642 0.571653 4.32531C0.571653 8.47188 7.10439 13.2608 7.38181 13.4642L7.72638 13.7146L8.07094 13.4642C8.3507 13.2622 14.8806 8.47188 14.8806 4.32531C14.9205 3.22658 14.5354 2.15627 13.8094 1.34788C13.0835 0.539499 12.0756 0.0586551 11.0056 0.0102539V0.0102539Z" fill="#C4C4C4"/>
</svg>
