<svg width="16" height="14" viewBox="0 0 16 14" fill="none" xmlns="http://www.w3.org/2000/svg">
<path d="M11.3215 0.03125C10.6501 0.0419869 9.99338 0.2344 9.41761 0.589059C8.84185 0.943718 8.36744 1.44806 8.0423 2.05117C7.71719 1.44813 7.24285 0.943833 6.66718 0.589178C6.0915 0.234524 5.43487 0.0420706 4.76357 0.03125C3.69342 0.0794058 2.68527 0.560143 1.95912 1.36855C1.23296 2.17696 0.84776 3.24741 0.887571 4.34631C0.887571 8.49288 7.42031 13.2818 7.69773 13.4852L8.0423 13.7356L8.38686 13.4852C8.66661 13.2832 15.1966 8.49288 15.1966 4.34631C15.2364 3.24757 14.8513 2.17726 14.1253 1.36888C13.3994 0.560496 12.3915 0.0796512 11.3215 0.03125V0.03125Z" fill="#C4C4C4"/>
</svg>
