<svg width="15" height="14" viewBox="0 0 15 14" fill="none" xmlns="http://www.w3.org/2000/svg">
<path d="M11.0056 0.0078125C10.3342 0.0185494 9.67746 0.210963 9.1017 0.565622C8.52593 0.920281 8.05152 1.42463 7.72638 2.02773C7.40127 1.4247 6.92694 0.920396 6.35126 0.565741C5.77559 0.211086 5.11895 0.0186331 4.44765 0.0078125C3.37751 0.0559683 2.36935 0.536706 1.6432 1.34512C0.917043 2.15353 0.531842 3.22398 0.571653 4.32287C0.571653 8.46944 7.10439 13.2584 7.38181 13.4618L7.72638 13.7121L8.07094 13.4618C8.3507 13.2598 14.8806 8.46944 14.8806 4.32287C14.9205 3.22414 14.5354 2.15382 13.8094 1.34544C13.0835 0.537058 12.0756 0.0562137 11.0056 0.0078125V0.0078125Z" fill="#C4C4C4"/>
</svg>
