<svg width="15" height="14" viewBox="0 0 15 14" fill="none" xmlns="http://www.w3.org/2000/svg">
<path d="M11.0056 0.0366211C10.3342 0.047358 9.67746 0.239771 9.1017 0.594431C8.52593 0.94909 8.05152 1.45344 7.72638 2.05654C7.40127 1.45351 6.92694 0.949204 6.35126 0.594549C5.77559 0.239895 5.11895 0.0474417 4.44765 0.0366211C3.37751 0.0847769 2.36935 0.565514 1.6432 1.37392C0.917043 2.18233 0.531842 3.25279 0.571653 4.35168C0.571653 8.49825 7.10439 13.2872 7.38181 13.4906L7.72638 13.7409L8.07094 13.4906C8.3507 13.2886 14.8806 8.49825 14.8806 4.35168C14.9205 3.25294 14.5354 2.18263 13.8094 1.37425C13.0835 0.565867 12.0756 0.0850223 11.0056 0.0366211V0.0366211Z" fill="#C4C4C4"/>
</svg>
