<svg width="15" height="15" viewBox="0 0 15 15" fill="none" xmlns="http://www.w3.org/2000/svg">
<path d="M11.0056 0.742188C10.3342 0.752924 9.67746 0.945338 9.1017 1.3C8.52593 1.65466 8.05152 2.159 7.72638 2.7621C7.40127 2.15907 6.92694 1.65477 6.35126 1.30012C5.77559 0.945461 5.11895 0.753008 4.44765 0.742188C3.37751 0.790343 2.36935 1.27108 1.6432 2.07949C0.917043 2.8879 0.531842 3.95835 0.571653 5.05725C0.571653 9.20382 7.10439 13.9927 7.38181 14.1962L7.72638 14.4465L8.07094 14.1962C8.3507 13.9942 14.8806 9.20382 14.8806 5.05725C14.9205 3.95851 14.5354 2.8882 13.8094 2.07982C13.0835 1.27143 12.0756 0.790589 11.0056 0.742188V0.742188Z" fill="#C4C4C4"/>
</svg>
