<svg width="15" height="14" viewBox="0 0 15 14" fill="none" xmlns="http://www.w3.org/2000/svg">
<path d="M11.0056 0.0209961C10.3342 0.031733 9.67746 0.224146 9.1017 0.578806C8.52593 0.933465 8.05152 1.43781 7.72638 2.04091C7.40127 1.43788 6.92694 0.933579 6.35126 0.578924C5.77559 0.22427 5.11895 0.0318167 4.44765 0.0209961C3.37751 0.0691519 2.36935 0.549889 1.6432 1.3583C0.917043 2.16671 0.531842 3.23716 0.571653 4.33605C0.571653 8.48263 7.10439 13.2715 7.38181 13.475L7.72638 13.7253L8.07094 13.475C8.3507 13.273 14.8806 8.48263 14.8806 4.33605C14.9205 3.23732 14.5354 2.16701 13.8094 1.35862C13.0835 0.550242 12.0756 0.0693973 11.0056 0.0209961V0.0209961Z" fill="#C4C4C4"/>
</svg>
