<svg width="15" height="14" viewBox="0 0 15 14" fill="none" xmlns="http://www.w3.org/2000/svg">
<path d="M11.0056 0.0258789C10.3342 0.0366158 9.67746 0.229029 9.1017 0.583688C8.52593 0.938347 8.05152 1.44269 7.72638 2.0458C7.40127 1.44276 6.92694 0.938462 6.35126 0.583807C5.77559 0.229152 5.11895 0.0366995 4.44765 0.0258789C3.37751 0.0740347 2.36935 0.554772 1.6432 1.36318C0.917043 2.17159 0.531842 3.24204 0.571653 4.34094C0.571653 8.48751 7.10439 13.2764 7.38181 13.4799L7.72638 13.7302L8.07094 13.4799C8.3507 13.2779 14.8806 8.48751 14.8806 4.34094C14.9205 3.2422 14.5354 2.17189 13.8094 1.36351C13.0835 0.555124 12.0756 0.0742801 11.0056 0.0258789V0.0258789Z" fill="#C4C4C4"/>
</svg>
