<svg width="15" height="14" viewBox="0 0 15 14" fill="none" xmlns="http://www.w3.org/2000/svg">
<path d="M11.0056 0.0180664C10.3342 0.0288033 9.67746 0.221217 9.1017 0.575876C8.52593 0.930535 8.05152 1.43488 7.72638 2.03798C7.40127 1.43495 6.92694 0.930649 6.35126 0.575995C5.77559 0.22134 5.11895 0.028887 4.44765 0.0180664C3.37751 0.0662222 2.36935 0.54696 1.6432 1.35537C0.917043 2.16378 0.531842 3.23423 0.571653 4.33312C0.571653 8.4797 7.10439 13.2686 7.38181 13.472L7.72638 13.7224L8.07094 13.472C8.3507 13.2701 14.8806 8.4797 14.8806 4.33312C14.9205 3.23439 14.5354 2.16408 13.8094 1.35569C13.0835 0.547312 12.0756 0.0664676 11.0056 0.0180664V0.0180664Z" fill="#C4C4C4"/>
</svg>
