<svg width="14" height="14" viewBox="0 0 14 14" fill="none" xmlns="http://www.w3.org/2000/svg">
<path d="M11.2231 8.38003C10.8032 8.38038 10.3896 8.48563 10.0181 8.68668C9.64668 8.88774 9.32844 9.17856 9.0909 9.53406L5.476 7.85878C5.73282 7.22225 5.73383 6.50726 5.4788 5.86997L9.08903 4.18559C9.44107 4.70832 9.96396 5.08421 10.5628 5.24506C11.1617 5.40592 11.7969 5.34109 12.3532 5.06234C12.9095 4.78359 13.3501 4.30938 13.595 3.72573C13.8399 3.14208 13.8729 2.48765 13.6881 1.88115C13.5032 1.27465 13.1127 0.756257 12.5874 0.420001C12.0622 0.0837453 11.4369 -0.0480984 10.825 0.048386C10.2131 0.14487 9.65523 0.463292 9.25248 0.945891C8.84972 1.42849 8.62879 2.0433 8.62977 2.67879C8.63285 2.82922 8.64845 2.97911 8.6764 3.12681L4.83863 4.91697C4.47006 4.56251 4.00865 4.32629 3.5111 4.23732C3.01355 4.14836 2.50153 4.21053 2.03792 4.41619C1.57431 4.62186 1.17932 4.96206 0.901469 5.39501C0.623615 5.82796 0.475001 6.3348 0.473883 6.85327C0.472765 7.37174 0.619192 7.87925 0.895176 8.31346C1.17116 8.74766 1.56468 9.08966 2.0274 9.29743C2.49011 9.5052 3.00187 9.5697 3.49979 9.48299C3.99772 9.39629 4.46014 9.16217 4.83024 8.80938L8.67779 10.5928C8.65109 10.7405 8.63643 10.8902 8.63397 11.0404C8.63387 11.5667 8.78582 12.0812 9.07059 12.5188C9.35536 12.9565 9.76016 13.2976 10.2338 13.4991C10.7074 13.7005 11.2286 13.7532 11.7314 13.6506C12.2343 13.5479 12.6961 13.2945 13.0587 12.9224C13.4212 12.5502 13.668 12.076 13.768 11.5598C13.868 11.0437 13.8167 10.5086 13.6204 10.0224C13.4242 9.53616 13.0919 9.1206 12.6656 8.82826C12.2393 8.53592 11.7381 8.37993 11.2254 8.38003H11.2231Z" fill="#C4C4C4"/>
</svg>
