<svg width="14" height="14" viewBox="0 0 14 14" fill="none" xmlns="http://www.w3.org/2000/svg">
<path d="M11.2231 8.40103C10.8032 8.40138 10.3896 8.50662 10.0181 8.70768C9.64668 8.90873 9.32844 9.19956 9.0909 9.55506L5.476 7.87977C5.73282 7.24325 5.73383 6.52825 5.4788 5.89097L9.08903 4.20659C9.44107 4.72932 9.96396 5.1052 10.5628 5.26606C11.1617 5.42692 11.7969 5.36209 12.3532 5.08334C12.9095 4.80459 13.3501 4.33038 13.595 3.74673C13.8399 3.16308 13.8729 2.50865 13.6881 1.90215C13.5032 1.29565 13.1127 0.777253 12.5874 0.440997C12.0622 0.104741 11.4369 -0.0271023 10.825 0.0693821C10.2131 0.165867 9.65523 0.484288 9.25248 0.966887C8.84972 1.44949 8.62879 2.06429 8.62977 2.69979C8.63285 2.85022 8.64845 3.0001 8.6764 3.14781L4.83863 4.93797C4.47006 4.58351 4.00865 4.34728 3.5111 4.25832C3.01355 4.16935 2.50153 4.23152 2.03792 4.43719C1.57431 4.64285 1.17932 4.98306 0.901469 5.41601C0.623615 5.84896 0.475001 6.3558 0.473883 6.87427C0.472765 7.39273 0.619192 7.90024 0.895176 8.33445C1.17116 8.76866 1.56468 9.11066 2.0274 9.31843C2.49011 9.5262 3.00187 9.59069 3.49979 9.50399C3.99772 9.41729 4.46014 9.18316 4.83024 8.83038L8.67779 10.6138C8.65109 10.7615 8.63643 10.9112 8.63397 11.0614C8.63387 11.5877 8.78582 12.1022 9.07059 12.5398C9.35536 12.9775 9.76016 13.3186 10.2338 13.5201C10.7074 13.7215 11.2286 13.7742 11.7314 13.6716C12.2343 13.5689 12.6961 13.3155 13.0587 12.9433C13.4212 12.5712 13.668 12.097 13.768 11.5808C13.868 11.0646 13.8167 10.5296 13.6204 10.0434C13.4242 9.55716 13.0919 9.1416 12.6656 8.84926C12.2393 8.55692 11.7381 8.40093 11.2254 8.40103H11.2231Z" fill="#C4C4C4"/>
</svg>
