<svg width="14" height="14" viewBox="0 0 14 14" fill="none" xmlns="http://www.w3.org/2000/svg">
<path d="M11.2231 8.39077C10.8032 8.39113 10.3896 8.49637 10.0181 8.69742C9.64668 8.89848 9.32844 9.1893 9.0909 9.5448L5.476 7.86952C5.73282 7.23299 5.73383 6.518 5.4788 5.88072L9.08903 4.19634C9.44107 4.71906 9.96396 5.09495 10.5628 5.25581C11.1617 5.41666 11.7969 5.35184 12.3532 5.07309C12.9095 4.79434 13.3501 4.32013 13.595 3.73648C13.8399 3.15282 13.8729 2.49839 13.6881 1.89189C13.5032 1.28539 13.1127 0.767 12.5874 0.430744C12.0622 0.0944875 11.4369 -0.0373562 10.825 0.0591282C10.2131 0.155613 9.65523 0.474034 9.25248 0.956633C8.84972 1.43923 8.62879 2.05404 8.62977 2.68954C8.63285 2.83997 8.64845 2.98985 8.6764 3.13755L4.83863 4.92772C4.47006 4.57325 4.00865 4.33703 3.5111 4.24806C3.01355 4.1591 2.50153 4.22127 2.03792 4.42693C1.57431 4.6326 1.17932 4.9728 0.901469 5.40575C0.623615 5.83871 0.475001 6.34555 0.473883 6.86401C0.472765 7.38248 0.619192 7.88999 0.895176 8.3242C1.17116 8.75841 1.56468 9.1004 2.0274 9.30817C2.49011 9.51594 3.00187 9.58044 3.49979 9.49374C3.99772 9.40703 4.46014 9.17291 4.83024 8.82012L8.67779 10.6036C8.65109 10.7513 8.63643 10.901 8.63397 11.0511C8.63387 11.5774 8.78582 12.0919 9.07059 12.5296C9.35536 12.9672 9.76016 13.3083 10.2338 13.5098C10.7074 13.7113 11.2286 13.764 11.7314 13.6613C12.2343 13.5587 12.6961 13.3052 13.0587 12.9331C13.4212 12.5609 13.668 12.0868 13.768 11.5706C13.868 11.0544 13.8167 10.5193 13.6204 10.0331C13.4242 9.5469 13.0919 9.13134 12.6656 8.839C12.2393 8.54666 11.7381 8.39068 11.2254 8.39077H11.2231Z" fill="#C4C4C4"/>
</svg>
