<svg width="15" height="14" viewBox="0 0 15 14" fill="none" xmlns="http://www.w3.org/2000/svg">
<path d="M11.539 8.40396C11.1191 8.40431 10.7055 8.50955 10.3341 8.71061C9.96259 8.91166 9.64436 9.20249 9.40682 9.55799L5.79192 7.8827C6.04874 7.24618 6.04974 6.53118 5.79472 5.8939L9.40495 4.20952C9.75699 4.73225 10.2799 5.10813 10.8788 5.26899C11.4776 5.42985 12.1128 5.36502 12.6692 5.08627C13.2255 4.80752 13.666 4.33331 13.9109 3.74966C14.1558 3.16601 14.1888 2.51158 14.004 1.90508C13.8191 1.29858 13.4286 0.780183 12.9034 0.443927C12.3781 0.107671 11.7528 -0.0241726 11.1409 0.0723118C10.5291 0.168796 9.97115 0.487218 9.56839 0.969816C9.16563 1.45241 8.94471 2.06722 8.94569 2.70272C8.94877 2.85315 8.96437 3.00303 8.99231 3.15074L5.15455 4.9409C4.78597 4.58644 4.32457 4.35021 3.82702 4.26125C3.32947 4.17228 2.81744 4.23445 2.35384 4.44012C1.89023 4.64578 1.49524 4.98599 1.21739 5.41894C0.939533 5.85189 0.790919 6.35873 0.789801 6.8772C0.788683 7.39566 0.93511 7.90317 1.21109 8.33738C1.48708 8.77159 1.8806 9.11359 2.34331 9.32136C2.80603 9.52913 3.31778 9.59362 3.81571 9.50692C4.31364 9.42022 4.77606 9.18609 5.14615 8.83331L8.99371 10.6168C8.967 10.7644 8.95234 10.9141 8.94988 11.0643C8.94979 11.5906 9.10174 12.1051 9.38651 12.5428C9.67128 12.9804 10.0761 13.3215 10.5497 13.523C11.0233 13.7244 11.5445 13.7772 12.0474 13.6745C12.5502 13.5719 13.0121 13.3184 13.3746 12.9463C13.7371 12.5741 13.984 12.1 14.084 11.5838C14.184 11.0676 14.1326 10.5325 13.9364 10.0463C13.7401 9.56009 13.4078 9.14453 12.9815 8.85219C12.5552 8.55985 12.054 8.40386 11.5413 8.40396H11.539Z" fill="#C4C4C4"/>
</svg>
