<svg width="14" height="14" viewBox="0 0 14 14" fill="none" xmlns="http://www.w3.org/2000/svg">
<path d="M11.2231 8.40933C10.8032 8.40968 10.3896 8.51492 10.0181 8.71598C9.64668 8.91703 9.32844 9.20786 9.0909 9.56336L5.476 7.88807C5.73282 7.25155 5.73383 6.53655 5.4788 5.89927L9.08903 4.21489C9.44107 4.73762 9.96396 5.1135 10.5628 5.27436C11.1617 5.43522 11.7969 5.37039 12.3532 5.09164C12.9095 4.81289 13.3501 4.33868 13.595 3.75503C13.8399 3.17138 13.8729 2.51695 13.6881 1.91045C13.5032 1.30395 13.1127 0.785554 12.5874 0.449298C12.0622 0.113042 11.4369 -0.0188015 10.825 0.0776829C10.2131 0.174167 9.65523 0.492589 9.25248 0.975188C8.84972 1.45779 8.62879 2.0726 8.62977 2.70809C8.63285 2.85852 8.64845 3.00841 8.6764 3.15611L4.83863 4.94627C4.47006 4.59181 4.00865 4.35558 3.5111 4.26662C3.01355 4.17765 2.50153 4.23982 2.03792 4.44549C1.57431 4.65115 1.17932 4.99136 0.901469 5.42431C0.623615 5.85726 0.475001 6.3641 0.473883 6.88257C0.472765 7.40103 0.619192 7.90854 0.895176 8.34275C1.17116 8.77696 1.56468 9.11896 2.0274 9.32673C2.49011 9.5345 3.00187 9.59899 3.49979 9.51229C3.99772 9.42559 4.46014 9.19146 4.83024 8.83868L8.67779 10.6221C8.65109 10.7698 8.63643 10.9195 8.63397 11.0697C8.63387 11.596 8.78582 12.1105 9.07059 12.5481C9.35536 12.9858 9.76016 13.3269 10.2338 13.5284C10.7074 13.7298 11.2286 13.7825 11.7314 13.6799C12.2343 13.5772 12.6961 13.3238 13.0587 12.9517C13.4212 12.5795 13.668 12.1053 13.768 11.5891C13.868 11.0729 13.8167 10.5379 13.6204 10.0517C13.4242 9.56546 13.0919 9.1499 12.6656 8.85756C12.2393 8.56522 11.7381 8.40923 11.2254 8.40933H11.2231Z" fill="#C4C4C4"/>
</svg>
