<svg width="14" height="15" viewBox="0 0 14 15" fill="none" xmlns="http://www.w3.org/2000/svg">
<path d="M11.2231 9.1144C10.8032 9.11476 10.3896 9.22 10.0181 9.42106C9.64668 9.62211 9.32844 9.91294 9.0909 10.2684L5.476 8.59315C5.73282 7.95663 5.73383 7.24163 5.4788 6.60435L9.08903 4.91997C9.44107 5.4427 9.96396 5.81858 10.5628 5.97944C11.1617 6.1403 11.7969 6.07547 12.3532 5.79672C12.9095 5.51797 13.3501 5.04376 13.595 4.46011C13.8399 3.87646 13.8729 3.22203 13.6881 2.61553C13.5032 2.00903 13.1127 1.49063 12.5874 1.15438C12.0622 0.81812 11.4369 0.686277 10.825 0.782761C10.2131 0.879245 9.65523 1.19767 9.25248 1.68027C8.84972 2.16286 8.62879 2.77767 8.62977 3.41317C8.63285 3.5636 8.64845 3.71348 8.6764 3.86119L4.83863 5.65135C4.47006 5.29689 4.00865 5.06066 3.5111 4.9717C3.01355 4.88273 2.50153 4.9449 2.03792 5.15057C1.57431 5.35623 1.17932 5.69644 0.901469 6.12939C0.623615 6.56234 0.475001 7.06918 0.473883 7.58764C0.472765 8.10611 0.619192 8.61362 0.895176 9.04783C1.17116 9.48204 1.56468 9.82404 2.0274 10.0318C2.49011 10.2396 3.00187 10.3041 3.49979 10.2174C3.99772 10.1307 4.46014 9.89654 4.83024 9.54376L8.67779 11.3272C8.65109 11.4749 8.63643 11.6246 8.63397 11.7748C8.63387 12.3011 8.78582 12.8156 9.07059 13.2532C9.35536 13.6909 9.76016 14.032 10.2338 14.2334C10.7074 14.4349 11.2286 14.4876 11.7314 14.385C12.2343 14.2823 12.6961 14.0289 13.0587 13.6567C13.4212 13.2846 13.668 12.8104 13.768 12.2942C13.868 11.778 13.8167 11.243 13.6204 10.7568C13.4242 10.2705 13.0919 9.85498 12.6656 9.56264C12.2393 9.2703 11.7381 9.11431 11.2254 9.1144H11.2231Z" fill="#C4C4C4"/>
</svg>
