<svg width="14" height="14" viewBox="0 0 14 14" fill="none" xmlns="http://www.w3.org/2000/svg">
<path d="M11.2232 8.38296C10.8033 8.38331 10.3897 8.48856 10.0183 8.68961C9.6468 8.89067 9.32856 9.18149 9.09102 9.53699L5.47612 7.86171C5.73294 7.22518 5.73395 6.51019 5.47892 5.8729L9.08916 4.18852C9.4412 4.71125 9.96408 5.08714 10.563 5.24799C11.1618 5.40885 11.797 5.34402 12.3534 5.06527C12.9097 4.78652 13.3502 4.31231 13.5951 3.72866C13.84 3.14501 13.873 2.49058 13.6882 1.88408C13.5033 1.27758 13.1128 0.759187 12.5876 0.422931C12.0623 0.086675 11.437 -0.0451687 10.8251 0.0513157C10.2133 0.1478 9.65536 0.466222 9.2526 0.94882C8.84984 1.43142 8.62891 2.04623 8.62989 2.68172C8.63298 2.83215 8.64858 2.98204 8.67652 3.12974L4.83875 4.9199C4.47018 4.56544 4.00878 4.32922 3.51123 4.24025C3.01368 4.15129 2.50165 4.21346 2.03804 4.41912C1.57444 4.62479 1.17944 4.96499 0.901591 5.39794C0.623737 5.83089 0.475123 6.33773 0.474005 6.8562C0.472887 7.37467 0.619315 7.88218 0.895298 8.31639C1.17128 8.75059 1.5648 9.09259 2.02752 9.30036C2.49023 9.50813 3.00199 9.57263 3.49992 9.48592C3.99785 9.39922 4.46026 9.1651 4.83036 8.81231L8.67792 10.5958C8.65121 10.7434 8.63655 10.8931 8.63409 11.0433C8.634 11.5696 8.78594 12.0841 9.07071 12.5218C9.35548 12.9594 9.76028 13.3005 10.2339 13.502C10.7075 13.7034 11.2287 13.7562 11.7316 13.6535C12.2344 13.5509 12.6963 13.2974 13.0588 12.9253C13.4213 12.5531 13.6682 12.079 13.7682 11.5628C13.8682 11.0466 13.8168 10.5115 13.6206 10.0253C13.4243 9.53909 13.092 9.12353 12.6657 8.83119C12.2394 8.53885 11.7382 8.38286 11.2255 8.38296H11.2232Z" fill="#C4C4C4"/>
</svg>
