<svg width="14" height="14" viewBox="0 0 14 14" fill="none" xmlns="http://www.w3.org/2000/svg">
<path d="M11.2232 8.39321C10.8033 8.39357 10.3897 8.49881 10.0183 8.69987C9.6468 8.90092 9.32856 9.19175 9.09102 9.54725L5.47612 7.87196C5.73294 7.23543 5.73395 6.52044 5.47892 5.88316L9.08916 4.19878C9.4412 4.72151 9.96408 5.09739 10.563 5.25825C11.1618 5.4191 11.797 5.35428 12.3534 5.07553C12.9097 4.79678 13.3502 4.32257 13.5951 3.73892C13.84 3.15527 13.873 2.50084 13.6882 1.89434C13.5033 1.28784 13.1128 0.769441 12.5876 0.433185C12.0623 0.0969289 11.437 -0.0349148 10.8251 0.0615696C10.2133 0.158054 9.65536 0.476476 9.2526 0.959074C8.84984 1.44167 8.62891 2.05648 8.62989 2.69198C8.63298 2.84241 8.64858 2.99229 8.67652 3.14L4.83875 4.93016C4.47018 4.57569 4.00878 4.33947 3.51123 4.25051C3.01368 4.16154 2.50165 4.22371 2.03804 4.42938C1.57444 4.63504 1.17944 4.97525 0.901591 5.4082C0.623737 5.84115 0.475123 6.34799 0.474005 6.86645C0.472887 7.38492 0.619315 7.89243 0.895298 8.32664C1.17128 8.76085 1.5648 9.10284 2.02752 9.31061C2.49023 9.51838 3.00199 9.58288 3.49992 9.49618C3.99785 9.40947 4.46026 9.17535 4.83036 8.82256L8.67792 10.606C8.65121 10.7537 8.63655 10.9034 8.63409 11.0536C8.634 11.5799 8.78594 12.0944 9.07071 12.532C9.35548 12.9697 9.76028 13.3108 10.2339 13.5122C10.7075 13.7137 11.2287 13.7664 11.7316 13.6638C12.2344 13.5611 12.6963 13.3077 13.0588 12.9355C13.4213 12.5634 13.6682 12.0892 13.7682 11.573C13.8682 11.0568 13.8168 10.5218 13.6206 10.0356C13.4243 9.54934 13.092 9.13378 12.6657 8.84144C12.2394 8.5491 11.7382 8.39312 11.2255 8.39321H11.2232Z" fill="#C4C4C4"/>
</svg>
