<svg width="14" height="14" viewBox="0 0 14 14" fill="none" xmlns="http://www.w3.org/2000/svg">
<path d="M11.2231 8.38833C10.8032 8.38868 10.3896 8.49393 10.0181 8.69498C9.64668 8.89604 9.32844 9.18686 9.0909 9.54236L5.476 7.86708C5.73282 7.23055 5.73383 6.51556 5.4788 5.87827L9.08903 4.19389C9.44107 4.71662 9.96396 5.09251 10.5628 5.25337C11.1617 5.41422 11.7969 5.3494 12.3532 5.07065C12.9095 4.79189 13.3501 4.31768 13.595 3.73403C13.8399 3.15038 13.8729 2.49595 13.6881 1.88945C13.5032 1.28295 13.1127 0.764558 12.5874 0.428302C12.0622 0.0920461 11.4369 -0.0397976 10.825 0.0566868C10.2131 0.153171 9.65523 0.471593 9.25248 0.954191C8.84972 1.43679 8.62879 2.0516 8.62977 2.68709C8.63285 2.83752 8.64845 2.98741 8.6764 3.13511L4.83863 4.92528C4.47006 4.57081 4.00865 4.33459 3.5111 4.24562C3.01355 4.15666 2.50153 4.21883 2.03792 4.42449C1.57431 4.63016 1.17932 4.97036 0.901469 5.40331C0.623615 5.83626 0.475001 6.3431 0.473883 6.86157C0.472765 7.38004 0.619192 7.88755 0.895176 8.32176C1.17116 8.75597 1.56468 9.09796 2.0274 9.30573C2.49011 9.5135 3.00187 9.578 3.49979 9.4913C3.99772 9.40459 4.46014 9.17047 4.83024 8.81768L8.67779 10.6011C8.65109 10.7488 8.63643 10.8985 8.63397 11.0487C8.63387 11.575 8.78582 12.0895 9.07059 12.5271C9.35536 12.9648 9.76016 13.3059 10.2338 13.5074C10.7074 13.7088 11.2286 13.7615 11.7314 13.6589C12.2343 13.5562 12.6961 13.3028 13.0587 12.9307C13.4212 12.5585 13.668 12.0843 13.768 11.5681C13.868 11.052 13.8167 10.5169 13.6204 10.0307C13.4242 9.54446 13.0919 9.1289 12.6656 8.83656C12.2393 8.54422 11.7381 8.38824 11.2254 8.38833H11.2231Z" fill="#C4C4C4"/>
</svg>
