<svg width="14" height="14" viewBox="0 0 14 14" fill="none" xmlns="http://www.w3.org/2000/svg">
<path d="M11.2231 8.39858C10.8032 8.39894 10.3896 8.50418 10.0181 8.70524C9.64668 8.90629 9.32844 9.19712 9.0909 9.55262L5.476 7.87733C5.73282 7.24081 5.73383 6.52581 5.4788 5.88853L9.08903 4.20415C9.44107 4.72688 9.96396 5.10276 10.5628 5.26362C11.1617 5.42448 11.7969 5.35965 12.3532 5.0809C12.9095 4.80215 13.3501 4.32794 13.595 3.74429C13.8399 3.16064 13.8729 2.50621 13.6881 1.89971C13.5032 1.29321 13.1127 0.774812 12.5874 0.438556C12.0622 0.1023 11.4369 -0.0295437 10.825 0.0669407C10.2131 0.163425 9.65523 0.481847 9.25248 0.964445C8.84972 1.44704 8.62879 2.06185 8.62977 2.69735C8.63285 2.84778 8.64845 2.99766 8.6764 3.14537L4.83863 4.93553C4.47006 4.58107 4.00865 4.34484 3.5111 4.25588C3.01355 4.16691 2.50153 4.22908 2.03792 4.43475C1.57431 4.64041 1.17932 4.98062 0.901469 5.41357C0.623615 5.84652 0.475001 6.35336 0.473883 6.87182C0.472765 7.39029 0.619192 7.8978 0.895176 8.33201C1.17116 8.76622 1.56468 9.10822 2.0274 9.31599C2.49011 9.52376 3.00187 9.58825 3.49979 9.50155C3.99772 9.41485 4.46014 9.18072 4.83024 8.82794L8.67779 10.6114C8.65109 10.7591 8.63643 10.9088 8.63397 11.0589C8.63387 11.5852 8.78582 12.0998 9.07059 12.5374C9.35536 12.975 9.76016 13.3162 10.2338 13.5176C10.7074 13.7191 11.2286 13.7718 11.7314 13.6691C12.2343 13.5665 12.6961 13.3131 13.0587 12.9409C13.4212 12.5688 13.668 12.0946 13.768 11.5784C13.868 11.0622 13.8167 10.5272 13.6204 10.0409C13.4242 9.55472 13.0919 9.13916 12.6656 8.84682C12.2393 8.55448 11.7381 8.39849 11.2254 8.39858H11.2231Z" fill="#C4C4C4"/>
</svg>
