<svg width="14" height="14" viewBox="0 0 14 14" fill="none" xmlns="http://www.w3.org/2000/svg">
<path d="M11.2231 8.4064C10.8032 8.40675 10.3896 8.51199 10.0181 8.71305C9.64668 8.9141 9.32844 9.20493 9.0909 9.56043L5.476 7.88514C5.73282 7.24862 5.73383 6.53362 5.4788 5.89634L9.08903 4.21196C9.44107 4.73469 9.96396 5.11057 10.5628 5.27143C11.1617 5.43229 11.7969 5.36746 12.3532 5.08871C12.9095 4.80996 13.3501 4.33575 13.595 3.7521C13.8399 3.16845 13.8729 2.51402 13.6881 1.90752C13.5032 1.30102 13.1127 0.782625 12.5874 0.446369C12.0622 0.110113 11.4369 -0.0217312 10.825 0.0747532C10.2131 0.171238 9.65523 0.489659 9.25248 0.972258C8.84972 1.45486 8.62879 2.06967 8.62977 2.70516C8.63285 2.85559 8.64845 3.00548 8.6764 3.15318L4.83863 4.94334C4.47006 4.58888 4.00865 4.35265 3.5111 4.26369C3.01355 4.17472 2.50153 4.23689 2.03792 4.44256C1.57431 4.64822 1.17932 4.98843 0.901469 5.42138C0.623615 5.85433 0.475001 6.36117 0.473883 6.87964C0.472765 7.3981 0.619192 7.90561 0.895176 8.33982C1.17116 8.77403 1.56468 9.11603 2.0274 9.3238C2.49011 9.53157 3.00187 9.59606 3.49979 9.50936C3.99772 9.42266 4.46014 9.18853 4.83024 8.83575L8.67779 10.6192C8.65109 10.7669 8.63643 10.9166 8.63397 11.0667C8.63387 11.5931 8.78582 12.1076 9.07059 12.5452C9.35536 12.9829 9.76016 13.324 10.2338 13.5254C10.7074 13.7269 11.2286 13.7796 11.7314 13.677C12.2343 13.5743 12.6961 13.3209 13.0587 12.9487C13.4212 12.5766 13.668 12.1024 13.768 11.5862C13.868 11.07 13.8167 10.535 13.6204 10.0488C13.4242 9.56253 13.0919 9.14697 12.6656 8.85463C12.2393 8.56229 11.7381 8.4063 11.2254 8.4064H11.2231Z" fill="#C4C4C4"/>
</svg>
