<svg width="14" height="14" viewBox="0 0 14 14" fill="none" xmlns="http://www.w3.org/2000/svg">
<path d="M11.2231 8.39565C10.8032 8.39601 10.3896 8.50125 10.0181 8.70231C9.64668 8.90336 9.32844 9.19419 9.0909 9.54969L5.476 7.8744C5.73282 7.23788 5.73383 6.52288 5.4788 5.8856L9.08903 4.20122C9.44107 4.72395 9.96396 5.09983 10.5628 5.26069C11.1617 5.42155 11.7969 5.35672 12.3532 5.07797C12.9095 4.79922 13.3501 4.32501 13.595 3.74136C13.8399 3.15771 13.8729 2.50328 13.6881 1.89678C13.5032 1.29028 13.1127 0.771882 12.5874 0.435626C12.0622 0.0993703 11.4369 -0.0324734 10.825 0.064011C10.2131 0.160495 9.65523 0.478917 9.25248 0.961516C8.84972 1.44411 8.62879 2.05892 8.62977 2.69442C8.63285 2.84485 8.64845 2.99473 8.6764 3.14244L4.83863 4.9326C4.47006 4.57814 4.00865 4.34191 3.5111 4.25295C3.01355 4.16398 2.50153 4.22615 2.03792 4.43182C1.57431 4.63748 1.17932 4.97769 0.901469 5.41064C0.623615 5.84359 0.475001 6.35043 0.473883 6.86889C0.472765 7.38736 0.619192 7.89487 0.895176 8.32908C1.17116 8.76329 1.56468 9.10529 2.0274 9.31306C2.49011 9.52083 3.00187 9.58532 3.49979 9.49862C3.99772 9.41192 4.46014 9.17779 4.83024 8.82501L8.67779 10.6085C8.65109 10.7561 8.63643 10.9058 8.63397 11.056C8.63387 11.5823 8.78582 12.0968 9.07059 12.5345C9.35536 12.9721 9.76016 13.3132 10.2338 13.5147C10.7074 13.7161 11.2286 13.7689 11.7314 13.6662C12.2343 13.5636 12.6961 13.3101 13.0587 12.938C13.4212 12.5658 13.668 12.0917 13.768 11.5755C13.868 11.0593 13.8167 10.5242 13.6204 10.038C13.4242 9.55179 13.0919 9.13623 12.6656 8.84389C12.2393 8.55155 11.7381 8.39556 11.2254 8.39565H11.2231Z" fill="#C4C4C4"/>
</svg>
