<svg width="14" height="14" viewBox="0 0 14 14" fill="none" xmlns="http://www.w3.org/2000/svg">
<path d="M11.2231 8.38589C10.8032 8.38624 10.3896 8.49149 10.0181 8.69254C9.64668 8.8936 9.32844 9.18442 9.0909 9.53992L5.476 7.86464C5.73282 7.22811 5.73383 6.51312 5.4788 5.87583L9.08903 4.19145C9.44107 4.71418 9.96396 5.09007 10.5628 5.25092C11.1617 5.41178 11.7969 5.34695 12.3532 5.0682C12.9095 4.78945 13.3501 4.31524 13.595 3.73159C13.8399 3.14794 13.8729 2.49351 13.6881 1.88701C13.5032 1.28051 13.1127 0.762117 12.5874 0.425861C12.0622 0.0896047 11.4369 -0.042239 10.825 0.0542454C10.2131 0.15073 9.65523 0.469152 9.25248 0.95175C8.84972 1.43435 8.62879 2.04916 8.62977 2.68465C8.63285 2.83508 8.64845 2.98497 8.6764 3.13267L4.83863 4.92283C4.47006 4.56837 4.00865 4.33215 3.5111 4.24318C3.01355 4.15422 2.50153 4.21639 2.03792 4.42205C1.57431 4.62772 1.17932 4.96792 0.901469 5.40087C0.623615 5.83382 0.475001 6.34066 0.473883 6.85913C0.472765 7.37759 0.619192 7.88511 0.895176 8.31931C1.17116 8.75352 1.56468 9.09552 2.0274 9.30329C2.49011 9.51106 3.00187 9.57556 3.49979 9.48885C3.99772 9.40215 4.46014 9.16803 4.83024 8.81524L8.67779 10.5987C8.65109 10.7464 8.63643 10.8961 8.63397 11.0462C8.63387 11.5725 8.78582 12.0871 9.07059 12.5247C9.35536 12.9623 9.76016 13.3035 10.2338 13.5049C10.7074 13.7064 11.2286 13.7591 11.7314 13.6564C12.2343 13.5538 12.6961 13.3004 13.0587 12.9282C13.4212 12.5561 13.668 12.0819 13.768 11.5657C13.868 11.0495 13.8167 10.5145 13.6204 10.0282C13.4242 9.54202 13.0919 9.12646 12.6656 8.83412C12.2393 8.54178 11.7381 8.38579 11.2254 8.38589H11.2231Z" fill="#C4C4C4"/>
</svg>
