<svg width="31" height="30" viewBox="0 0 31 30" fill="none" xmlns="http://www.w3.org/2000/svg">
<path d="M23.1821 28.6157H7.46052C5.79244 28.6157 4.19267 27.9531 3.01307 26.7737C1.83347 25.5943 1.17066 23.9946 1.17041 22.3265V12.4329C1.17044 11.3517 1.44915 10.2888 1.97965 9.3467C2.51014 8.40462 3.27451 7.61518 4.19898 7.05458L12.0612 2.2904C13.0441 1.69479 14.1715 1.37988 15.3208 1.37988C16.4702 1.37988 17.5975 1.69479 18.5805 2.2904L26.4417 7.05458C27.3664 7.61507 28.1309 8.40445 28.6616 9.34654C29.1923 10.2886 29.4711 11.3516 29.4712 12.4329V22.3265C29.471 23.9944 28.8083 25.5939 27.6289 26.7733C26.4495 27.9527 24.85 28.6154 23.1821 28.6157V28.6157Z" stroke="white" stroke-width="2.32967" stroke-linecap="round" stroke-linejoin="round"/>
<path d="M10.604 28.6157H20.0378" stroke="white" stroke-width="2.32967" stroke-linecap="round" stroke-linejoin="round"/>
</svg>
