<svg width="18" height="30" viewBox="0 0 18 30" fill="none" xmlns="http://www.w3.org/2000/svg">
<path d="M1.49109 28.668V21.1124M1.49109 21.1124V2.33991C1.49107 2.17839 1.5342 2.0198 1.61601 1.88054C1.69782 1.74128 1.81535 1.6264 1.95644 1.54777C2.09753 1.46915 2.25706 1.42965 2.41854 1.43334C2.58001 1.43704 2.73757 1.4838 2.87491 1.56879L16.1582 9.79206C16.2874 9.87199 16.3943 9.98308 16.4694 10.1151C16.5444 10.2472 16.585 10.3959 16.5876 10.5478C16.5901 10.6996 16.5545 10.8497 16.484 10.9842C16.4134 11.1187 16.3102 11.2333 16.1839 11.3175L1.49109 21.1124Z" stroke="white" stroke-width="2.32967" stroke-linecap="round" stroke-linejoin="round"/>
</svg>
