<svg width="31" height="30" viewBox="0 0 31 30" fill="none" xmlns="http://www.w3.org/2000/svg">
<path d="M22.4784 21.8599L29.2876 28.669" stroke="white" stroke-width="2.32967" stroke-linecap="round" stroke-linejoin="round"/>
<path d="M2.05139 13.1057C2.05139 15.4143 2.73598 17.6711 4.01858 19.5906C5.30118 21.5102 7.12418 23.0063 9.25707 23.8897C11.39 24.7732 13.7369 25.0044 16.0012 24.554C18.2654 24.1036 20.3453 22.9919 21.9777 21.3594C23.6102 19.727 24.7219 17.6472 25.1723 15.3829C25.6227 13.1186 25.3915 10.7717 24.508 8.63878C23.6246 6.5059 22.1285 4.68289 20.2089 3.40029C18.2894 2.11769 16.0326 1.43311 13.724 1.43311C10.6282 1.43311 7.65924 2.66289 5.47021 4.85192C3.28118 7.04096 2.05139 10.0099 2.05139 13.1057V13.1057Z" stroke="white" stroke-width="2.32967" stroke-linecap="round" stroke-linejoin="round"/>
</svg>
