<svg width="30" height="30" viewBox="0 0 30 30" fill="none" xmlns="http://www.w3.org/2000/svg">
<path d="M10.2307 14.9978H14.7349M19.2391 14.9978H14.7349M14.7349 14.9978V10.4937M14.7349 14.9978V19.502" stroke="white" stroke-width="2.32967" stroke-linecap="round" stroke-linejoin="round"/>
<path d="M28.2471 2.38649V27.6094C28.2471 27.8482 28.1522 28.0773 27.9833 28.2462C27.8144 28.4151 27.5853 28.51 27.3464 28.51H2.12355C1.88468 28.51 1.6556 28.4151 1.48669 28.2462C1.31779 28.0773 1.2229 27.8482 1.2229 27.6094V2.38649C1.2229 2.14762 1.31779 1.91854 1.48669 1.74963C1.6556 1.58073 1.88468 1.48584 2.12355 1.48584H27.3464C27.5853 1.48584 27.8144 1.58073 27.9833 1.74963C28.1522 1.91854 28.2471 2.14762 28.2471 2.38649Z" stroke="white" stroke-width="2.32967" stroke-linecap="round" stroke-linejoin="round"/>
</svg>
