<svg width="27" height="34" viewBox="0 0 27 34" fill="none" xmlns="http://www.w3.org/2000/svg">
<path d="M13.2346 33.7867C11.9742 33.7848 10.7662 33.2832 9.87527 32.3917C8.98434 31.5001 8.48313 30.2913 8.48202 29.0309H2.13913C1.84527 29.0295 1.55786 28.9467 1.30828 28.7916C1.05869 28.6365 0.856841 28.4156 0.725403 28.1528C0.593965 27.8899 0.537796 27.5955 0.563418 27.3028C0.58904 27.0101 0.695455 26.7298 0.870552 26.4938L2.13913 24.7493V14.0628C2.14418 11.4558 3.12223 8.94398 4.8815 7.0201C6.64077 5.09623 9.05461 3.89878 11.6507 3.66119V2.07683C11.6507 1.65588 11.8181 1.25243 12.1158 0.95477C12.4134 0.657112 12.8173 0.489746 13.2383 0.489746C13.6592 0.489746 14.0627 0.657112 14.3603 0.95477C14.658 1.25243 14.8254 1.65588 14.8254 2.07683V3.66119C16.2856 3.79143 17.7016 4.22961 18.9801 4.94706C18.1798 5.41667 17.4915 6.05508 16.9635 6.81808C16.1785 6.49564 15.3493 6.29287 14.5041 6.21655C14.1469 6.16485 13.7861 6.14391 13.4253 6.15376H13.1532C12.8862 6.14594 12.619 6.15551 12.3533 6.18288H12.3428H12.3251C12.3173 6.18246 12.3096 6.18246 12.3019 6.18288L12.2668 6.18743C12.2002 6.19488 12.107 6.20359 11.9756 6.21291C9.9007 6.39406 7.96937 7.34783 6.56368 8.88475C5.158 10.4217 4.38035 12.4305 4.38462 14.5133V25.7048C4.38692 25.8085 4.41008 25.9106 4.45288 26.0051C4.49567 26.0996 4.55709 26.1843 4.63352 26.2544C4.70994 26.3246 4.80007 26.3783 4.89788 26.4128C4.99569 26.4473 5.09923 26.4622 5.20274 26.4556C5.20769 26.4555 5.21272 26.4564 5.2173 26.4583H21.3116C21.4126 26.4611 21.5131 26.4438 21.6073 26.4073C21.7016 26.3708 21.7875 26.3155 21.8603 26.2453C21.9331 26.1752 21.9914 26.0916 22.0314 25.9987C22.0714 25.9059 22.0923 25.8059 22.0933 25.7048V16.67H22.1452C22.8937 16.671 23.6363 16.5379 24.3379 16.2769V24.7938L25.6065 26.492C25.7816 26.728 25.888 27.0073 25.9136 27.3001C25.9392 27.5928 25.883 27.8872 25.7516 28.15C25.6202 28.4129 25.4188 28.6338 25.1692 28.7889C24.9196 28.944 24.6317 29.0276 24.3379 29.0291H17.9954C17.9937 30.291 17.4916 31.5006 16.599 32.3926C15.7065 33.2846 14.4965 33.7858 13.2346 33.7867V33.7867ZM11.6503 29.0309C11.6503 29.4519 11.8176 29.8553 12.1153 30.153C12.413 30.4507 12.8169 30.618 13.2378 30.618C13.6588 30.618 14.0622 30.4507 14.3599 30.153C14.6575 29.8553 14.8249 29.4519 14.8249 29.0309H11.6503Z" fill="#282828"/>
<path d="M21.912 15.2747C24.4853 15.2747 26.5714 13.1887 26.5714 10.6154C26.5714 8.04211 24.4853 5.95605 21.912 5.95605C19.3387 5.95605 17.2527 8.04211 17.2527 10.6154C17.2527 13.1887 19.3387 15.2747 21.912 15.2747Z" fill="#FF0000"/>
</svg>
